<svg width="208" height="30" viewBox="0 0 208 30" fill="none" xmlns="http://www.w3.org/2000/svg">
<g clip-path="url(#clip0)">
<path d="M130.653 21.4062H127.559L134.464 5.11389H137.706L144.758 21.4062H141.516L139.662 16.9629H134.259L135.294 14.3424H138.57L136.011 8.22422L130.653 21.4062ZM152.093 5.11389V18.7857H158.554V21.4062H149.078V5.11389H152.093ZM174.875 5.11389V7.71156H166.73V11.8131H174.488V14.5134H166.696V18.7857H175.034V21.4062H163.739V5.11389H174.875ZM180.15 21.3834V5.11389H187.544C190.866 5.11389 192.526 6.56839 192.526 9.47756C192.526 11.4447 191.233 13.0741 188.647 14.3652L193.8 21.4062H190.001L185.053 14.3082V12.9297C187.935 12.4359 189.375 11.3156 189.375 9.56872C189.375 8.36856 188.701 7.76856 187.351 7.76856H183.222V21.3834H180.15ZM208.198 5.11389V7.73439H203.534V21.4062H200.521V7.73439H195.857V5.11389H208.198Z" fill="white"/>
<path d="M35.5127 20.7227V17.9883C37.1431 18.596 38.9859 18.8998 41.041 18.8998C43.5359 18.8998 44.7833 18.0643 44.7833 16.3933C44.7833 15.178 44.0174 14.5703 42.4856 14.5703H39.9376C36.6085 14.5703 34.944 13.0513 34.944 10.0132C34.944 6.67117 37.3138 5 42.0534 5C43.8734 5 45.5986 5.266 47.229 5.79767V8.532C45.5986 7.92433 43.8734 7.6205 42.0534 7.6205C39.3233 7.6205 37.9583 8.418 37.9583 10.0132C37.9583 11.2283 38.6181 11.836 39.9376 11.836H42.4856C46.027 11.836 47.7977 13.3552 47.7977 16.3933C47.7977 19.8113 45.5455 21.5203 41.041 21.5203C38.9859 21.5203 37.1431 21.2543 35.5127 20.7227ZM52.6867 21.4063V5.114H55.8149L61.3317 17.4757L66.7349 5.114H69.7492V21.4063H66.9623V10.0587L62.5487 21.4063H59.978L55.4736 10.0587V21.4063H52.6867ZM77.1635 21.4063H74.0694L80.974 5.114H84.2158L91.2684 21.4063H88.0266L86.1724 16.963H80.7694L81.8044 14.3425H85.0805L82.5211 8.22433L77.1635 21.4063ZM95.5886 21.3835V5.114H102.982C106.304 5.114 107.965 6.5685 107.965 9.47767C107.965 11.4448 106.672 13.0742 104.086 14.3653L109.239 21.4063H105.439L100.491 14.3083V12.9298C103.373 12.436 104.814 11.3157 104.814 9.56883C104.814 8.36866 104.139 7.76867 102.789 7.76867H98.6599V21.3835H95.5886ZM123.637 5.114V7.7345H118.973V21.4063H115.959V7.7345H111.295V5.114H123.637Z" fill="white"/>
<path fill-rule="evenodd" clip-rule="evenodd" d="M12.8142 30.0001H12.8114C11.2497 29.9987 9.77145 29.3093 8.65005 28.0577C8.26407 27.6293 8.29901 26.9665 8.72812 26.5815C9.15723 26.1935 9.81757 26.2283 10.2034 26.6595C10.925 27.4647 11.8515 27.9069 12.8128 27.9069H12.8142C13.7794 27.9069 14.7101 27.4647 15.4331 26.6581C15.8203 26.2297 16.4807 26.1949 16.9084 26.5815C17.3375 26.9679 17.3724 27.6307 16.9865 28.0591C15.8609 29.3107 14.3798 30.0001 12.8142 30.0001Z" fill="white"/>
<path fill-rule="evenodd" clip-rule="evenodd" d="M12.8821 2.09325C8.01315 2.09325 4.6196 5.9137 4.6196 9.34206C4.6196 12.2429 3.81569 13.5839 3.10523 14.7671C2.53554 15.7174 2.08547 16.4681 2.08547 18.0992C2.31809 20.7309 4.05251 22.1137 12.8821 22.1137C21.6628 22.1137 23.4517 20.6695 23.683 18.0085C23.6788 16.4681 23.2289 15.7174 22.659 14.7671C21.9486 13.5839 21.1446 12.2429 21.1446 9.34206C21.1446 5.9137 17.7511 2.09325 12.8821 2.09325ZM12.8821 24.2063C6.36799 24.2063 0.480647 23.7461 1.87301e-05 18.1883C-0.00417453 15.8887 0.696499 14.7194 1.31511 13.6897C1.9407 12.646 2.52995 11.6623 2.52995 9.34184C2.52995 4.83068 6.68967 0 12.8821 0C19.0746 0 23.2343 4.83068 23.2343 9.34184C23.2343 11.6623 23.8235 12.646 24.4491 13.6897C25.0675 14.7194 25.7684 15.8887 25.7684 18.099C25.2822 23.7459 19.3963 24.2063 12.8821 24.2063Z" fill="white"/>
</g>
<defs>
<clipPath id="clip0">
<rect width="208" height="30" fill="white"/>
</clipPath>
</defs>
</svg>
