<svg width="397" height="371" viewBox="0 0 397 371" fill="none" xmlns="http://www.w3.org/2000/svg">
<g clip-path="url(#clip0)">
<path d="M176.85 9.23001C185.377 4.22017 194.909 1.16665 204.76 0.290005C235.47 -2.03999 261.86 20.24 276.38 44.46C290.9 68.68 298.17 96.25 315.32 119.04C328.06 135.98 345.65 149.44 361.51 164.12C381.18 182.34 400.93 205.44 396.59 232.34C392.59 257.34 372.15 279 348.36 291.67C318.63 307.51 283.52 312.5 249.47 317.79C201.2 325.3 152.57 334.05 103.69 331.79C74.12 330.39 42.77 323.93 22.86 304.43C6.44003 288.36 0.33003 265.66 0.18003 243.84C-0.0699695 209.37 15.18 176.94 37.71 149.05C63.2 117.51 98.31 93.48 124.71 62.64C135.84 49.64 145.38 35.55 157.86 23.64C163.571 18.0713 169.95 13.2311 176.85 9.23001V9.23001Z" fill="#F16A49"/>
<path opacity="0.9" d="M176.85 9.23001C185.377 4.22017 194.909 1.16665 204.76 0.290005C235.47 -2.03999 261.86 20.24 276.38 44.46C290.9 68.68 298.17 96.25 315.32 119.04C328.06 135.98 345.65 149.44 361.51 164.12C381.18 182.34 400.93 205.44 396.59 232.34C392.59 257.34 372.15 279 348.36 291.67C318.63 307.51 283.52 312.5 249.47 317.79C201.2 325.3 152.57 334.05 103.69 331.79C74.12 330.39 42.77 323.93 22.86 304.43C6.44003 288.36 0.33003 265.66 0.18003 243.84C-0.0699695 209.37 15.18 176.94 37.71 149.05C63.2 117.51 98.31 93.48 124.71 62.64C135.84 49.64 145.38 35.55 157.86 23.64C163.571 18.0713 169.95 13.2311 176.85 9.23001V9.23001Z" fill="white"/>
<path d="M204 370.56C311.082 370.56 397.89 365.492 397.89 359.24C397.89 352.988 311.082 347.92 204 347.92C96.9175 347.92 10.11 352.988 10.11 359.24C10.11 365.492 96.9175 370.56 204 370.56Z" fill="#F5F5F5"/>
<path d="M258.04 43.5H101.97C96.2263 43.5 91.5701 48.1562 91.5701 53.9V351.22C91.5701 356.964 96.2263 361.62 101.97 361.62H258.04C263.784 361.62 268.44 356.964 268.44 351.22V53.9C268.44 48.1562 263.784 43.5 258.04 43.5Z" fill="#263238"/>
<path opacity="0.2" d="M258.04 43.5H101.97C96.2263 43.5 91.5701 48.1562 91.5701 53.9V351.22C91.5701 356.964 96.2263 361.62 101.97 361.62H258.04C263.784 361.62 268.44 356.964 268.44 351.22V53.9C268.44 48.1562 263.784 43.5 258.04 43.5Z" fill="white"/>
<path d="M262.47 54.16V350.4C262.47 350.975 262.356 351.543 262.134 352.073C261.912 352.603 261.587 353.084 261.177 353.487C260.768 353.89 260.282 354.207 259.749 354.421C259.215 354.634 258.645 354.739 258.07 354.73H101.46C100.937 354.736 100.418 354.635 99.9346 354.435C99.4512 354.235 99.0132 353.94 98.647 353.566C98.2808 353.192 97.994 352.748 97.8038 352.261C97.6135 351.774 97.5238 351.253 97.54 350.73V53.8C97.5213 53.3403 97.5933 52.8814 97.7521 52.4495C97.9109 52.0177 98.1532 51.6214 98.4653 51.2833C98.7774 50.9453 99.1531 50.672 99.5708 50.4793C99.9886 50.2865 100.44 50.178 100.9 50.16H140.05C140.598 50.1691 141.13 50.3415 141.579 50.6551C142.028 50.9686 142.373 51.4091 142.57 51.92L144.19 55.92C144.393 56.4272 144.742 56.863 145.192 57.1726C145.642 57.4823 146.174 57.6518 146.72 57.66H213.37C213.914 57.6595 214.446 57.4951 214.895 57.1883C215.345 56.8815 215.691 56.4466 215.89 55.94L217.51 51.94C217.71 51.4279 218.056 50.9865 218.507 50.6715C218.957 50.3564 219.491 50.1819 220.04 50.17H258.63C259.661 50.2113 260.636 50.6495 261.352 51.3931C262.068 52.1366 262.468 53.128 262.47 54.16Z" fill="#F16A49"/>
<path opacity="0.6" d="M262.47 68.67H97.54V322.86H262.47V68.67Z" fill="white"/>
<path opacity="0.6" d="M115.71 62.1H117.75V59.38H115.71V62.1Z" fill="white"/>
<path opacity="0.6" d="M112.39 62.1H114.43V58.48H112.39V62.1Z" fill="white"/>
<path opacity="0.6" d="M109.07 62.1H111.11V57.57H109.07V62.1Z" fill="white"/>
<path opacity="0.6" d="M105.75 62.1H107.79V56.67H105.75V62.1Z" fill="white"/>
<path opacity="0.6" d="M243.8 58.39H242.59V61.11H243.8V58.39Z" fill="white"/>
<path opacity="0.6" d="M244.63 62.1H254.25V57.4H244.63V62.1Z" fill="white"/>
<path opacity="0.6" d="M195.43 112.54H164.58C161.565 112.54 159.12 114.985 159.12 118V148.85C159.12 151.865 161.565 154.31 164.58 154.31H195.43C198.446 154.31 200.89 151.865 200.89 148.85V118C200.89 114.985 198.446 112.54 195.43 112.54Z" fill="#F16A49"/>
<path opacity="0.6" d="M145.43 112.54H114.58C111.565 112.54 109.12 114.985 109.12 118V148.85C109.12 151.865 111.565 154.31 114.58 154.31H145.43C148.446 154.31 150.89 151.865 150.89 148.85V118C150.89 114.985 148.446 112.54 145.43 112.54Z" fill="#F16A49"/>
<path opacity="0.4" d="M139.12 145.82H121.12C119.961 145.82 118.813 145.592 117.742 145.148C116.672 144.704 115.699 144.053 114.88 143.233C114.061 142.413 113.411 141.44 112.969 140.368C112.526 139.297 112.299 138.149 112.3 136.99V136.99C112.3 134.651 113.229 132.407 114.883 130.753C116.537 129.099 118.781 128.17 121.12 128.17H139.12C141.459 128.17 143.703 129.099 145.357 130.753C147.011 132.407 147.94 134.651 147.94 136.99C147.941 138.149 147.714 139.297 147.272 140.368C146.829 141.44 146.179 142.413 145.36 143.233C144.541 144.053 143.568 144.704 142.498 145.148C141.427 145.592 140.279 145.82 139.12 145.82V145.82Z" fill="white"/>
<path opacity="0.4" d="M139.63 137C139.632 137.24 139.563 137.475 139.431 137.675C139.299 137.875 139.111 138.032 138.89 138.125C138.669 138.218 138.426 138.244 138.19 138.198C137.955 138.152 137.738 138.038 137.568 137.869C137.398 137.7 137.282 137.485 137.234 137.25C137.187 137.015 137.21 136.771 137.301 136.549C137.392 136.328 137.548 136.138 137.747 136.005C137.946 135.871 138.18 135.8 138.42 135.8C138.739 135.8 139.045 135.926 139.272 136.151C139.499 136.376 139.627 136.681 139.63 137V137Z" fill="white"/>
<path opacity="0.4" d="M144.42 137C144.422 137.24 144.353 137.475 144.221 137.675C144.089 137.875 143.901 138.032 143.68 138.125C143.459 138.218 143.216 138.244 142.98 138.198C142.745 138.152 142.528 138.038 142.358 137.869C142.188 137.7 142.072 137.485 142.024 137.25C141.977 137.015 142 136.771 142.091 136.549C142.183 136.328 142.338 136.138 142.537 136.005C142.736 135.871 142.97 135.8 143.21 135.8C143.529 135.8 143.836 135.926 144.062 136.151C144.289 136.376 144.417 136.681 144.42 137Z" fill="white"/>
<path opacity="0.4" d="M140.82 135.81C140.58 135.812 140.345 135.743 140.145 135.611C139.945 135.479 139.788 135.291 139.695 135.07C139.602 134.849 139.577 134.606 139.622 134.37C139.668 134.135 139.782 133.918 139.951 133.748C140.12 133.578 140.335 133.462 140.57 133.414C140.805 133.367 141.049 133.39 141.271 133.481C141.492 133.572 141.682 133.728 141.815 133.927C141.949 134.126 142.02 134.36 142.02 134.6C142.02 134.919 141.894 135.225 141.669 135.452C141.444 135.679 141.139 135.807 140.82 135.81Z" fill="white"/>
<path opacity="0.4" d="M140.82 140.59C140.58 140.592 140.345 140.522 140.144 140.39C139.944 140.258 139.787 140.069 139.694 139.848C139.601 139.626 139.576 139.382 139.623 139.146C139.669 138.911 139.785 138.694 139.954 138.524C140.124 138.355 140.341 138.239 140.576 138.193C140.812 138.146 141.056 138.171 141.278 138.264C141.499 138.357 141.688 138.514 141.82 138.714C141.953 138.915 142.022 139.15 142.02 139.39C142.017 139.707 141.89 140.011 141.666 140.236C141.441 140.46 141.138 140.587 140.82 140.59V140.59Z" fill="white"/>
<path opacity="0.4" d="M123.04 135.78H120.64V133.39H118.23V135.78H115.84V138.2H118.23V140.59H120.64V138.2H123.04V135.78Z" fill="white"/>
<path opacity="0.4" d="M129.58 137.55H127.67V138.34H129.58V137.55Z" fill="white"/>
<path opacity="0.4" d="M132.58 137.55H130.67V138.34H132.58V137.55Z" fill="white"/>
<g opacity="0.4">
<path opacity="0.4" d="M130.63 117.62H129.63V127.11H130.63V117.62Z" fill="white"/>
</g>
<path opacity="0.6" d="M245.43 112.54H214.58C211.565 112.54 209.12 114.985 209.12 118V148.85C209.12 151.865 211.565 154.31 214.58 154.31H245.43C248.446 154.31 250.89 151.865 250.89 148.85V118C250.89 114.985 248.446 112.54 245.43 112.54Z" fill="#F16A49"/>
<path d="M189.72 121H179.66C178.207 121.003 176.815 121.581 175.788 122.608C174.761 123.635 174.183 125.027 174.18 126.48V130C174.18 131.454 174.757 132.849 175.785 133.878C176.812 134.908 178.206 135.487 179.66 135.49H185.15L187.08 139.36V135.49H189.72C190.441 135.49 191.154 135.348 191.819 135.072C192.485 134.796 193.09 134.391 193.599 133.881C194.108 133.371 194.511 132.766 194.786 132.1C195.061 131.434 195.201 130.72 195.2 130V126.42C195.184 124.977 194.6 123.599 193.574 122.584C192.548 121.569 191.163 121 189.72 121Z" fill="#F16A49"/>
<path opacity="0.4" d="M189.72 121H179.66C178.207 121.003 176.815 121.581 175.788 122.608C174.761 123.635 174.183 125.027 174.18 126.48V130C174.18 131.454 174.757 132.849 175.785 133.878C176.812 134.908 178.206 135.487 179.66 135.49H185.15L187.08 139.36V135.49H189.72C190.441 135.49 191.154 135.348 191.819 135.072C192.485 134.796 193.09 134.391 193.599 133.881C194.108 133.371 194.511 132.766 194.786 132.1C195.061 131.434 195.201 130.72 195.2 130V126.42C195.184 124.977 194.6 123.599 193.574 122.584C192.548 121.569 191.163 121 189.72 121Z" fill="white"/>
<path d="M169.15 130.18H179.21C180.663 130.18 182.057 130.757 183.085 131.785C184.113 132.813 184.69 134.207 184.69 135.66V139.24C184.691 139.96 184.551 140.674 184.276 141.34C184.001 142.006 183.598 142.611 183.089 143.121C182.58 143.631 181.975 144.036 181.309 144.312C180.644 144.588 179.931 144.73 179.21 144.73H173.72L171.79 148.59V144.73H169.15C168.43 144.73 167.716 144.588 167.051 144.312C166.385 144.036 165.781 143.631 165.272 143.121C164.763 142.611 164.359 142.006 164.084 141.34C163.81 140.674 163.669 139.96 163.67 139.24V135.66C163.67 134.207 164.247 132.813 165.275 131.785C166.303 130.757 167.697 130.18 169.15 130.18V130.18Z" fill="#F16A49"/>
<path opacity="0.6" d="M169.15 130.18H179.21C180.663 130.18 182.057 130.757 183.085 131.785C184.113 132.813 184.69 134.207 184.69 135.66V139.24C184.691 139.96 184.551 140.674 184.276 141.34C184.001 142.006 183.598 142.611 183.089 143.121C182.58 143.631 181.975 144.036 181.309 144.312C180.644 144.588 179.931 144.73 179.21 144.73H173.72L171.79 148.59V144.73H169.15C168.43 144.73 167.716 144.588 167.051 144.312C166.385 144.036 165.781 143.631 165.272 143.121C164.763 142.611 164.359 142.006 164.084 141.34C163.81 140.674 163.669 139.96 163.67 139.24V135.66C163.67 134.207 164.247 132.813 165.275 131.785C166.303 130.757 167.697 130.18 169.15 130.18V130.18Z" fill="white"/>
<path opacity="0.4" d="M243.85 143V121L241.85 121.93L233.05 126.08L225.34 122.08L223.34 121.08V140.47C222.553 140.096 221.691 139.905 220.82 139.91C218.33 139.91 216.32 141.35 216.32 143.13C216.32 144.91 218.32 146.34 220.82 146.34C223.32 146.34 225.31 144.91 225.32 143.13V130L233.57 133.83L241.83 129.44V140.31C241.041 139.943 240.18 139.756 239.31 139.76C236.83 139.76 234.81 141.2 234.81 142.98C234.81 144.76 236.81 146.19 239.31 146.19C241.81 146.19 243.81 144.75 243.81 142.98L243.85 143Z" fill="white"/>
<path opacity="0.6" d="M195.43 162.54H164.58C161.565 162.54 159.12 164.985 159.12 168V198.85C159.12 201.865 161.565 204.31 164.58 204.31H195.43C198.446 204.31 200.89 201.865 200.89 198.85V168C200.89 164.985 198.446 162.54 195.43 162.54Z" fill="#F16A49"/>
<path opacity="0.6" d="M145.43 162.54H114.58C111.565 162.54 109.12 164.985 109.12 168V198.85C109.12 201.865 111.565 204.31 114.58 204.31H145.43C148.446 204.31 150.89 201.865 150.89 198.85V168C150.89 164.985 148.446 162.54 145.43 162.54Z" fill="#F16A49"/>
<path opacity="0.6" d="M245.43 162.54H214.58C211.565 162.54 209.12 164.985 209.12 168V198.85C209.12 201.865 211.565 204.31 214.58 204.31H245.43C248.446 204.31 250.89 201.865 250.89 198.85V168C250.89 164.985 248.446 162.54 245.43 162.54Z" fill="#F16A49"/>
<path opacity="0.4" d="M189.9 174.62H170.52C168.808 174.62 167.42 176.008 167.42 177.72V188.79C167.42 190.502 168.808 191.89 170.52 191.89H189.9C191.612 191.89 193 190.502 193 188.79V177.72C193 176.008 191.612 174.62 189.9 174.62Z" fill="white"/>
<path opacity="0.4" d="M174.57 179.25V187.26L185.85 183.26L174.57 179.25Z" fill="white"/>
<g opacity="0.4">
<path opacity="0.4" d="M122.3 191C121.946 190.998 121.598 191.101 121.303 191.297C121.007 191.492 120.776 191.771 120.639 192.098C120.502 192.425 120.465 192.785 120.533 193.133C120.601 193.481 120.771 193.801 121.021 194.052C121.271 194.303 121.59 194.475 121.937 194.545C122.285 194.615 122.645 194.58 122.973 194.445C123.3 194.31 123.58 194.08 123.778 193.786C123.975 193.491 124.08 193.144 124.08 192.79C124.081 192.555 124.036 192.323 123.947 192.106C123.859 191.889 123.728 191.691 123.562 191.525C123.397 191.359 123.2 191.227 122.983 191.136C122.767 191.046 122.535 191 122.3 191V191Z" fill="white"/>
<path opacity="0.4" d="M137.42 191C137.066 190.998 136.718 191.101 136.423 191.297C136.127 191.492 135.896 191.771 135.759 192.098C135.622 192.425 135.585 192.785 135.653 193.133C135.721 193.481 135.891 193.801 136.141 194.052C136.391 194.303 136.71 194.475 137.057 194.545C137.405 194.615 137.765 194.58 138.093 194.445C138.42 194.31 138.7 194.08 138.898 193.786C139.095 193.491 139.2 193.144 139.2 192.79C139.201 192.555 139.156 192.323 139.067 192.106C138.979 191.889 138.848 191.691 138.682 191.525C138.517 191.359 138.32 191.227 138.103 191.136C137.887 191.046 137.655 191 137.42 191V191Z" fill="white"/>
<path opacity="0.4" d="M139.44 182.34L140.39 176.77C140.414 176.627 140.407 176.481 140.369 176.341C140.331 176.201 140.263 176.071 140.17 175.96C140.076 175.85 139.96 175.762 139.828 175.702C139.697 175.641 139.554 175.61 139.41 175.61H121L117.37 174.61C117.114 174.543 116.842 174.58 116.613 174.713C116.385 174.846 116.218 175.064 116.15 175.32C116.083 175.576 116.12 175.848 116.253 176.077C116.386 176.305 116.604 176.472 116.86 176.54L119.99 177.38L121.88 188.48C121.921 188.715 122.043 188.927 122.227 189.08C122.41 189.232 122.642 189.313 122.88 189.31H137.39C137.628 189.313 137.86 189.232 138.043 189.08C138.227 188.927 138.35 188.715 138.39 188.48L139.39 182.91C139.471 182.766 139.516 182.605 139.52 182.44C139.496 182.405 139.469 182.371 139.44 182.34V182.34ZM137.56 181.47H134.32L134.51 177.61H138.22L137.56 181.47ZM128.68 181.47L128.48 177.61H132.48L132.28 181.47H128.68ZM132.21 183.47L132.02 187.34H129L128.81 183.47H132.21ZM126.48 177.61L126.67 181.47H122.75L122.09 177.61H126.48ZM123.09 183.47H126.77L126.97 187.34H123.75L123.09 183.47ZM134 187.34L134.19 183.47H137.19L136.53 187.34H134Z" fill="white"/>
</g>
<g opacity="0.4">
<path opacity="0.4" d="M226.87 176H224.47V173.6C224.47 173.335 224.365 173.08 224.177 172.893C223.99 172.705 223.735 172.6 223.47 172.6C223.205 172.6 222.95 172.705 222.763 172.893C222.575 173.08 222.47 173.335 222.47 173.6V176H220.07C219.805 176 219.55 176.105 219.363 176.293C219.175 176.48 219.07 176.735 219.07 177C219.07 177.265 219.175 177.52 219.363 177.707C219.55 177.895 219.805 178 220.07 178H222.47V180.4C222.47 180.665 222.575 180.92 222.763 181.107C222.95 181.295 223.205 181.4 223.47 181.4C223.735 181.4 223.99 181.295 224.177 181.107C224.365 180.92 224.47 180.665 224.47 180.4V178H226.87C227.135 178 227.39 177.895 227.577 177.707C227.765 177.52 227.87 177.265 227.87 177C227.87 176.735 227.765 176.48 227.577 176.293C227.39 176.105 227.135 176 226.87 176Z" fill="white"/>
<path opacity="0.4" d="M240.12 176H233.32C233.055 176 232.8 176.105 232.613 176.293C232.425 176.48 232.32 176.735 232.32 177C232.32 177.265 232.425 177.52 232.613 177.707C232.8 177.895 233.055 178 233.32 178H240.12C240.385 178 240.64 177.895 240.827 177.707C241.015 177.52 241.12 177.265 241.12 177C241.12 176.735 241.015 176.48 240.827 176.293C240.64 176.105 240.385 176 240.12 176Z" fill="white"/>
<path opacity="0.4" d="M239.83 186.76C239.737 186.666 239.626 186.592 239.505 186.541C239.383 186.49 239.252 186.464 239.12 186.464C238.988 186.464 238.857 186.49 238.735 186.541C238.614 186.592 238.503 186.666 238.41 186.76L236.72 188.45L235.02 186.76C234.93 186.655 234.82 186.57 234.696 186.51C234.572 186.45 234.437 186.417 234.299 186.411C234.161 186.406 234.024 186.429 233.896 186.479C233.767 186.53 233.651 186.606 233.553 186.703C233.456 186.801 233.38 186.917 233.329 187.046C233.279 187.174 233.256 187.311 233.261 187.449C233.267 187.587 233.3 187.722 233.36 187.846C233.42 187.97 233.505 188.08 233.61 188.17L235.3 189.87L233.61 191.56C233.419 191.744 233.309 191.997 233.304 192.262C233.3 192.528 233.401 192.784 233.585 192.975C233.769 193.166 234.022 193.276 234.287 193.281C234.553 193.285 234.809 193.184 235 193L236.7 191.3L238.39 193C238.483 193.093 238.594 193.166 238.716 193.216C238.838 193.266 238.968 193.291 239.1 193.29C239.232 193.291 239.362 193.266 239.484 193.216C239.606 193.166 239.717 193.093 239.81 193C239.904 192.907 239.978 192.796 240.029 192.675C240.08 192.553 240.106 192.422 240.106 192.29C240.106 192.158 240.08 192.027 240.029 191.905C239.978 191.784 239.904 191.673 239.81 191.58L238.11 189.89L239.81 188.19C239.907 188.098 239.984 187.988 240.037 187.866C240.091 187.744 240.119 187.612 240.121 187.479C240.123 187.346 240.098 187.214 240.048 187.09C239.998 186.967 239.924 186.854 239.83 186.76V186.76Z" fill="white"/>
<path opacity="0.4" d="M226.37 186.87H220.57C220.305 186.87 220.05 186.975 219.863 187.163C219.675 187.35 219.57 187.605 219.57 187.87C219.57 188.135 219.675 188.39 219.863 188.577C220.05 188.765 220.305 188.87 220.57 188.87H226.37C226.635 188.87 226.89 188.765 227.077 188.577C227.265 188.39 227.37 188.135 227.37 187.87C227.37 187.605 227.265 187.35 227.077 187.163C226.89 186.975 226.635 186.87 226.37 186.87Z" fill="white"/>
<path opacity="0.4" d="M226.37 190.87H220.57C220.305 190.87 220.05 190.975 219.863 191.163C219.675 191.35 219.57 191.605 219.57 191.87C219.57 192.135 219.675 192.39 219.863 192.577C220.05 192.765 220.305 192.87 220.57 192.87H226.37C226.635 192.87 226.89 192.765 227.077 192.577C227.265 192.39 227.37 192.135 227.37 191.87C227.37 191.605 227.265 191.35 227.077 191.163C226.89 190.975 226.635 190.87 226.37 190.87Z" fill="white"/>
</g>
<path opacity="0.6" d="M195.43 212.54H164.58C161.565 212.54 159.12 214.985 159.12 218V248.85C159.12 251.865 161.565 254.31 164.58 254.31H195.43C198.446 254.31 200.89 251.865 200.89 248.85V218C200.89 214.985 198.446 212.54 195.43 212.54Z" fill="#F16A49"/>
<path opacity="0.6" d="M145.43 212.54H114.58C111.565 212.54 109.12 214.985 109.12 218V248.85C109.12 251.865 111.565 254.31 114.58 254.31H145.43C148.446 254.31 150.89 251.865 150.89 248.85V218C150.89 214.985 148.446 212.54 145.43 212.54Z" fill="#F16A49"/>
<path opacity="0.6" d="M245.43 212.54H214.58C211.565 212.54 209.12 214.985 209.12 218V248.85C209.12 251.865 211.565 254.31 214.58 254.31H245.43C248.446 254.31 250.89 251.865 250.89 248.85V218C250.89 214.985 248.446 212.54 245.43 212.54Z" fill="#F16A49"/>
<path opacity="0.4" d="M137.22 220.32H119.51V244.45H137.22V220.32Z" fill="white"/>
<path opacity="0.4" d="M133.78 223.77H122.95C122.475 223.77 122.09 224.153 122.09 224.625C122.09 225.097 122.475 225.48 122.95 225.48H133.78C134.255 225.48 134.64 225.097 134.64 224.625C134.64 224.153 134.255 223.77 133.78 223.77Z" fill="white"/>
<path opacity="0.4" d="M133.78 227.65H123C122.888 227.649 122.776 227.67 122.672 227.712C122.567 227.754 122.473 227.816 122.393 227.895C122.313 227.974 122.249 228.069 122.206 228.172C122.162 228.276 122.14 228.388 122.14 228.5C122.139 228.613 122.16 228.726 122.203 228.831C122.246 228.936 122.309 229.031 122.389 229.111C122.469 229.191 122.564 229.255 122.669 229.297C122.774 229.34 122.887 229.361 123 229.36H133.83C133.943 229.361 134.056 229.34 134.161 229.297C134.266 229.255 134.361 229.191 134.441 229.111C134.521 229.031 134.585 228.936 134.627 228.831C134.67 228.726 134.691 228.613 134.69 228.5V228.5C134.69 228.383 134.667 228.268 134.62 228.16C134.574 228.053 134.506 227.956 134.42 227.877C134.335 227.797 134.234 227.736 134.124 227.697C134.014 227.658 133.897 227.642 133.78 227.65V227.65Z" fill="white"/>
<path opacity="0.4" d="M133.78 231.53H122.95C122.475 231.53 122.09 231.913 122.09 232.385C122.09 232.857 122.475 233.24 122.95 233.24H133.78C134.255 233.24 134.64 232.857 134.64 232.385C134.64 231.913 134.255 231.53 133.78 231.53Z" fill="white"/>
<path opacity="0.4" d="M133.78 235.41H123C122.887 235.409 122.774 235.43 122.669 235.473C122.564 235.515 122.469 235.579 122.389 235.659C122.309 235.739 122.246 235.834 122.203 235.939C122.16 236.044 122.139 236.157 122.14 236.27V236.27C122.14 236.382 122.162 236.494 122.206 236.598C122.249 236.701 122.313 236.796 122.393 236.875C122.473 236.954 122.567 237.016 122.672 237.058C122.776 237.1 122.888 237.121 123 237.12H133.83C133.943 237.121 134.054 237.1 134.158 237.058C134.263 237.016 134.358 236.954 134.438 236.875C134.518 236.796 134.581 236.701 134.624 236.598C134.668 236.494 134.69 236.382 134.69 236.27V236.27C134.692 236.152 134.669 236.036 134.623 235.927C134.577 235.819 134.51 235.721 134.424 235.64C134.338 235.559 134.237 235.497 134.126 235.457C134.015 235.418 133.897 235.402 133.78 235.41V235.41Z" fill="white"/>
<path opacity="0.4" d="M129.78 239.29H122.95C122.475 239.29 122.09 239.673 122.09 240.145C122.09 240.617 122.475 241 122.95 241H129.78C130.255 241 130.64 240.617 130.64 240.145C130.64 239.673 130.255 239.29 129.78 239.29Z" fill="white"/>
<path opacity="0.6" d="M137.22 223.11V244.45H121.12V246.77H137.22H139.52V244.45V223.11H137.22Z" fill="white"/>
<path opacity="0.4" d="M242.93 223.11V243.83H217.09V223.11H221V224.6C221 224.804 221.081 225 221.226 225.144C221.37 225.289 221.566 225.37 221.77 225.37C221.974 225.37 222.17 225.289 222.315 225.144C222.459 225 222.54 224.804 222.54 224.6V223.11H225.13V224.6C225.13 224.804 225.211 225 225.356 225.144C225.5 225.289 225.696 225.37 225.9 225.37C226.104 225.37 226.3 225.289 226.445 225.144C226.589 225 226.67 224.804 226.67 224.6V223.11H229.26V224.6C229.26 224.804 229.341 225 229.486 225.144C229.63 225.289 229.826 225.37 230.03 225.37C230.234 225.37 230.43 225.289 230.575 225.144C230.719 225 230.8 224.804 230.8 224.6V223.11H233.39V224.6C233.378 224.708 233.388 224.817 233.421 224.92C233.454 225.024 233.508 225.119 233.58 225.2C233.653 225.281 233.741 225.346 233.84 225.39C233.939 225.435 234.047 225.458 234.155 225.458C234.264 225.458 234.371 225.435 234.47 225.39C234.569 225.346 234.657 225.281 234.73 225.2C234.802 225.119 234.856 225.024 234.889 224.92C234.922 224.817 234.932 224.708 234.92 224.6V223.11H237.52V224.6C237.508 224.708 237.518 224.817 237.551 224.92C237.584 225.024 237.638 225.119 237.71 225.2C237.783 225.281 237.871 225.346 237.97 225.39C238.069 225.435 238.177 225.458 238.285 225.458C238.394 225.458 238.501 225.435 238.6 225.39C238.699 225.346 238.787 225.281 238.86 225.2C238.932 225.119 238.986 225.024 239.019 224.92C239.052 224.817 239.062 224.708 239.05 224.6V223.11H242.93Z" fill="white"/>
<path opacity="0.4" d="M242.93 223.11V226.74H217.09V223.11H221V224.6C221 224.804 221.081 225 221.226 225.144C221.37 225.289 221.566 225.37 221.77 225.37C221.974 225.37 222.17 225.289 222.315 225.144C222.459 225 222.54 224.804 222.54 224.6V223.11H225.13V224.6C225.13 224.804 225.211 225 225.356 225.144C225.5 225.289 225.696 225.37 225.9 225.37C226.104 225.37 226.3 225.289 226.445 225.144C226.589 225 226.67 224.804 226.67 224.6V223.11H229.26V224.6C229.26 224.804 229.341 225 229.486 225.144C229.63 225.289 229.826 225.37 230.03 225.37C230.234 225.37 230.43 225.289 230.575 225.144C230.719 225 230.8 224.804 230.8 224.6V223.11H233.39V224.6C233.378 224.708 233.388 224.817 233.421 224.92C233.454 225.024 233.508 225.119 233.58 225.2C233.653 225.281 233.741 225.346 233.84 225.39C233.939 225.435 234.047 225.458 234.155 225.458C234.264 225.458 234.371 225.435 234.47 225.39C234.569 225.346 234.657 225.281 234.73 225.2C234.802 225.119 234.856 225.024 234.889 224.92C234.922 224.817 234.932 224.708 234.92 224.6V223.11H237.52V224.6C237.508 224.708 237.518 224.817 237.551 224.92C237.584 225.024 237.638 225.119 237.71 225.2C237.783 225.281 237.871 225.346 237.97 225.39C238.069 225.435 238.177 225.458 238.285 225.458C238.394 225.458 238.501 225.435 238.6 225.39C238.699 225.346 238.787 225.281 238.86 225.2C238.932 225.119 238.986 225.024 239.019 224.92C239.052 224.817 239.062 224.708 239.05 224.6V223.11H242.93Z" fill="white"/>
<path opacity="0.4" d="M221.75 225.37C221.546 225.37 221.35 225.289 221.206 225.144C221.061 225 220.98 224.804 220.98 224.6V222.06C220.983 221.857 221.065 221.662 221.208 221.518C221.352 221.375 221.547 221.293 221.75 221.29V221.29C221.954 221.293 222.148 221.375 222.292 221.518C222.436 221.662 222.517 221.857 222.52 222.06V224.6C222.52 224.804 222.439 225 222.295 225.144C222.15 225.289 221.954 225.37 221.75 225.37Z" fill="white"/>
<path opacity="0.4" d="M226.64 222.06C226.64 221.635 226.298 221.29 225.875 221.29C225.453 221.29 225.11 221.635 225.11 222.06V224.6C225.11 225.025 225.453 225.37 225.875 225.37C226.298 225.37 226.64 225.025 226.64 224.6V222.06Z" fill="white"/>
<path opacity="0.4" d="M230 225.37C229.899 225.371 229.798 225.352 229.704 225.314C229.61 225.276 229.524 225.219 229.453 225.147C229.381 225.076 229.324 224.99 229.286 224.896C229.248 224.802 229.229 224.701 229.23 224.6V222.06C229.23 221.856 229.311 221.66 229.456 221.516C229.6 221.371 229.796 221.29 230 221.29C230.203 221.293 230.396 221.375 230.538 221.519C230.68 221.663 230.76 221.858 230.76 222.06V224.6C230.761 224.701 230.743 224.801 230.705 224.894C230.667 224.987 230.612 225.072 230.541 225.144C230.47 225.216 230.386 225.272 230.293 225.311C230.2 225.35 230.101 225.37 230 225.37V225.37Z" fill="white"/>
<path opacity="0.4" d="M234.14 225.37C234.039 225.371 233.938 225.352 233.844 225.314C233.75 225.276 233.664 225.219 233.593 225.147C233.521 225.076 233.464 224.99 233.426 224.896C233.388 224.802 233.369 224.701 233.37 224.6V222.06C233.37 221.856 233.451 221.66 233.596 221.516C233.74 221.371 233.936 221.29 234.14 221.29C234.343 221.293 234.536 221.375 234.678 221.519C234.82 221.663 234.9 221.858 234.9 222.06V224.6C234.901 224.701 234.883 224.801 234.845 224.894C234.807 224.987 234.752 225.072 234.681 225.144C234.61 225.216 234.526 225.272 234.433 225.311C234.34 225.35 234.241 225.37 234.14 225.37V225.37Z" fill="white"/>
<path opacity="0.4" d="M238.27 225.37C238.169 225.371 238.068 225.352 237.974 225.314C237.88 225.276 237.794 225.219 237.723 225.147C237.651 225.076 237.594 224.99 237.556 224.896C237.518 224.802 237.499 224.701 237.5 224.6V222.06C237.5 221.856 237.581 221.66 237.726 221.516C237.87 221.371 238.066 221.29 238.27 221.29C238.473 221.293 238.666 221.375 238.808 221.519C238.95 221.663 239.03 221.858 239.03 222.06V224.6C239.031 224.701 239.013 224.801 238.975 224.894C238.938 224.987 238.882 225.072 238.811 225.144C238.74 225.216 238.656 225.272 238.563 225.311C238.47 225.35 238.371 225.37 238.27 225.37V225.37Z" fill="white"/>
<path opacity="0.4" d="M229.07 229.57H221.36V234.42H229.07V229.57Z" fill="white"/>
<path opacity="0.4" d="M238.64 229.57H230.93V234.42H238.64V229.57Z" fill="white"/>
<path opacity="0.4" d="M229.07 235.57H221.36V240.42H229.07V235.57Z" fill="white"/>
<path opacity="0.4" d="M238.64 235.57H230.93V240.42H238.64V235.57Z" fill="white"/>
<path opacity="0.6" d="M180 50.55C180 50.997 179.868 51.4339 179.619 51.8056C179.371 52.1773 179.018 52.4669 178.605 52.638C178.192 52.809 177.738 52.8538 177.299 52.7666C176.861 52.6794 176.458 52.4641 176.142 52.1481C175.826 51.832 175.611 51.4293 175.524 50.9909C175.436 50.5525 175.481 50.0981 175.652 49.6851C175.823 49.2722 176.113 48.9192 176.485 48.6709C176.856 48.4226 177.293 48.29 177.74 48.29C178.339 48.2926 178.912 48.5316 179.335 48.9549C179.759 49.3781 179.997 49.9514 180 50.55V50.55Z" fill="white"/>
<path opacity="0.6" d="M184.56 50.55C184.56 50.8368 184.475 51.1171 184.316 51.3556C184.156 51.594 183.93 51.7799 183.665 51.8896C183.4 51.9994 183.108 52.0281 182.827 51.9721C182.546 51.9162 182.288 51.7781 182.085 51.5753C181.882 51.3725 181.744 51.1142 181.688 50.8329C181.632 50.5516 181.661 50.2601 181.77 49.9951C181.88 49.7302 182.066 49.5037 182.304 49.3444C182.543 49.185 182.823 49.1 183.11 49.1C183.495 49.1 183.863 49.2528 184.135 49.5247C184.407 49.7966 184.56 50.1654 184.56 50.55V50.55Z" fill="white"/>
<path opacity="0.4" d="M243.21 97.81H120C117.963 97.81 116.01 97.0009 114.569 95.5606C113.129 94.1203 112.32 92.1669 112.32 90.13V90.13C112.32 88.0932 113.129 86.1397 114.569 84.6994C116.01 83.2592 117.963 82.45 120 82.45H243.21C245.247 82.45 247.2 83.2592 248.641 84.6994C250.081 86.1397 250.89 88.0932 250.89 90.13V90.13C250.89 92.1669 250.081 94.1203 248.641 95.5606C247.2 97.0009 245.247 97.81 243.21 97.81Z" fill="white"/>
<path opacity="0.4" d="M190.12 235.71V232.47L188.45 232.31C188.224 231.241 187.8 230.224 187.2 229.31L188.27 228.01L186 225.73L184.7 226.8C183.79 226.196 182.771 225.775 181.7 225.56L181.54 223.89H178.3L178.14 225.56C177.069 225.775 176.05 226.196 175.14 226.8L173.84 225.73L171.55 228L172.62 229.3C172.02 230.212 171.599 231.23 171.38 232.3L169.71 232.46V235.7L171.38 235.86C171.598 236.93 172.019 237.948 172.62 238.86L171.55 240.15L173.84 242.44L175.14 241.37C176.052 241.973 177.07 242.397 178.14 242.62L178.3 244.29H181.54L181.7 242.62C182.77 242.397 183.788 241.973 184.7 241.37L186 242.44L188.29 240.15L187.22 238.86C187.82 237.947 188.244 236.929 188.47 235.86L190.12 235.71ZM179.91 238.48C179.042 238.48 178.193 238.223 177.471 237.74C176.749 237.258 176.187 236.572 175.854 235.77C175.522 234.968 175.435 234.085 175.604 233.234C175.774 232.382 176.192 231.6 176.806 230.986C177.42 230.372 178.202 229.954 179.054 229.784C179.905 229.615 180.788 229.702 181.59 230.034C182.392 230.366 183.078 230.929 183.56 231.651C184.043 232.373 184.3 233.222 184.3 234.09C184.3 235.254 183.838 236.371 183.014 237.194C182.191 238.017 181.074 238.48 179.91 238.48V238.48Z" fill="white"/>
<path d="M169.11 270.53C169.112 271.021 168.968 271.502 168.696 271.912C168.425 272.321 168.037 272.64 167.584 272.829C167.13 273.018 166.631 273.068 166.149 272.973C165.667 272.877 165.224 272.641 164.877 272.294C164.529 271.946 164.293 271.503 164.197 271.021C164.102 270.539 164.152 270.04 164.341 269.586C164.53 269.133 164.849 268.746 165.259 268.474C165.668 268.202 166.149 268.058 166.64 268.06C167.294 268.063 167.921 268.324 168.384 268.786C168.846 269.249 169.107 269.876 169.11 270.53Z" fill="white"/>
<path d="M183.14 270.53C183.142 271.021 182.998 271.501 182.727 271.911C182.456 272.32 182.069 272.639 181.616 272.828C181.163 273.018 180.664 273.068 180.182 272.974C179.701 272.879 179.258 272.644 178.91 272.297C178.562 271.951 178.325 271.509 178.228 271.028C178.132 270.546 178.18 270.047 178.368 269.593C178.555 269.14 178.873 268.752 179.281 268.479C179.689 268.206 180.169 268.06 180.66 268.06C181.316 268.06 181.945 268.32 182.41 268.783C182.875 269.246 183.137 269.874 183.14 270.53V270.53Z" fill="white"/>
<path d="M197.16 270.53C197.162 271.021 197.018 271.502 196.746 271.912C196.475 272.321 196.087 272.64 195.634 272.829C195.18 273.018 194.681 273.068 194.199 272.973C193.717 272.877 193.274 272.641 192.926 272.294C192.579 271.946 192.343 271.503 192.247 271.021C192.152 270.539 192.202 270.04 192.391 269.586C192.58 269.133 192.899 268.746 193.308 268.474C193.718 268.202 194.199 268.058 194.69 268.06C195.344 268.063 195.971 268.324 196.434 268.786C196.896 269.249 197.157 269.876 197.16 270.53V270.53Z" fill="white"/>
<path d="M82.42 106.75C82.42 106.75 74.77 102.49 68.53 105.66C62.29 108.83 62.59 132.36 61.21 134.54C59.83 136.72 56.26 138.59 56.26 138.59C62.9866 141.09 70.0854 142.442 77.26 142.59C83.652 142.636 90.0278 141.941 96.26 140.52C96.26 140.52 102.25 102.89 82.42 106.75Z" fill="#263238"/>
<path d="M51.4901 343.49L57.2801 340.54L55.1701 331.9L53.2301 323.98L45.9501 326.36L48.8801 335.44L51.4901 343.49Z" fill="#E4897B"/>
<path d="M58.8801 339.18C58.5401 338.54 50.7801 343.04 50.7801 343.04C50.7801 343.04 48.3501 350.51 44.1201 354.04C39.8901 357.57 44.0001 359.09 49.3601 356.42L62.5901 349.83C66.4001 347.92 62.4101 345.86 58.8801 339.18Z" fill="#263238"/>
<path d="M46.79 347.35C46.57 347.3 46.28 347.13 46.17 346.59C46.1432 346.46 46.1427 346.325 46.1685 346.195C46.1942 346.064 46.2458 345.94 46.32 345.83C46.7787 345.321 47.3659 344.944 48.02 344.74C47.2 344.74 46.42 344.58 46.18 344.17C46.1128 344.014 46.095 343.841 46.129 343.675C46.163 343.509 46.2471 343.357 46.37 343.24C46.4896 343.084 46.6402 342.955 46.8124 342.86C46.9845 342.765 47.1744 342.708 47.37 342.69C48.68 342.6 50.28 344.13 50.37 344.2C50.3966 344.225 50.4172 344.256 50.43 344.29V344.29C50.4347 344.31 50.4347 344.33 50.43 344.35V344.35C50.4401 344.376 50.4401 344.404 50.43 344.43C50.4392 344.456 50.4392 344.484 50.43 344.51C49.7708 345.367 49.016 346.145 48.18 346.83C47.8039 347.181 47.304 347.368 46.79 347.35V347.35ZM46.72 346.1C46.6779 346.155 46.648 346.218 46.6325 346.285C46.6169 346.352 46.6161 346.422 46.63 346.49C46.7 346.84 46.85 346.88 46.89 346.89C47.42 347.01 48.67 345.84 49.6 344.75C48.61 345 47.13 345.48 46.72 346.1V346.1ZM46.72 343.53C46.63 343.64 46.5 343.83 46.56 343.94C46.76 344.29 48.22 344.34 49.63 344.2C49.0119 343.638 48.2308 343.288 47.4 343.2C47.2226 343.211 47.0523 343.273 46.91 343.38C46.8505 343.423 46.7967 343.473 46.75 343.53H46.72Z" fill="#F16A49"/>
<path opacity="0.2" d="M48.9501 335.62L55.2301 332.06L53.2701 324.06L45.9601 326.4L48.9501 335.62Z" fill="black"/>
<path d="M61.6901 350.71H68.3001L70.1901 342.22L71.9101 334.43L64.1801 333.25L62.8601 342.5L61.6901 350.71Z" fill="#E4897B"/>
<path d="M70.49 350.45C70.49 349.72 61.49 350.29 61.49 350.29C61.49 350.29 55.98 355.9 50.63 357.15C45.28 358.4 48.27 361.62 54.25 361.62H69.04C73.32 361.62 70.66 358 70.49 350.45Z" fill="#263238"/>
<path d="M56 352.37C55.8715 352.253 55.7817 352.099 55.7424 351.929C55.7031 351.76 55.7162 351.582 55.78 351.42C55.8154 351.291 55.876 351.171 55.9584 351.067C56.0409 350.962 56.1434 350.875 56.2601 350.81C56.8941 350.555 57.5858 350.479 58.2601 350.59C57.5301 350.2 56.89 349.73 56.86 349.26C56.86 348.95 57.05 348.7 57.45 348.51C57.632 348.426 57.8298 348.383 58.03 348.383C58.2303 348.383 58.4281 348.426 58.61 348.51C59.83 349.01 60.61 351.1 60.61 351.19C60.6227 351.218 60.6293 351.249 60.6293 351.28C60.6293 351.311 60.6227 351.342 60.61 351.37V351.42C60.5905 351.448 60.5624 351.469 60.53 351.48C59.3701 352.075 58.1142 352.461 56.82 352.62C56.5257 352.637 56.235 352.548 56 352.37V352.37ZM56.5 351.22C56.4371 351.25 56.3814 351.293 56.3366 351.347C56.2917 351.4 56.2588 351.463 56.24 351.53C56.15 351.88 56.2401 351.98 56.3001 352.01C56.7201 352.35 58.36 351.86 59.68 351.3C58.69 351.08 57.16 350.85 56.52 351.22H56.5ZM57.67 348.94C57.54 348.99 57.34 349.11 57.35 349.23C57.35 349.64 58.6501 350.33 59.9801 350.84C59.6831 350.05 59.1441 349.375 58.4401 348.91C58.326 348.863 58.2035 348.839 58.08 348.84C57.944 348.842 57.8103 348.876 57.6901 348.94H57.67Z" fill="#F16A49"/>
<path opacity="0.2" d="M62.8401 342.68L70.1701 342.39L71.9001 334.51L64.1801 333.29L62.8401 342.68Z" fill="black"/>
<path d="M93.9201 195.15L77.6901 192.55L62.9801 189.55L58.9801 213.55C58.9801 213.55 38.2701 243.55 33.2501 264.18C28.2301 284.81 47.1001 332.67 47.1001 332.67L55.7501 328.84C55.7501 328.84 49.7501 282.84 49.8901 277.25C49.9801 273.65 61.7901 257.05 70.0501 245.87C70.2901 248.67 67.6101 276.68 67.6101 276.68L61.7801 338.09H72.6401C110.12 221.74 93.9201 195.15 93.9201 195.15Z" fill="#F16A49"/>
<path opacity="0.6" d="M72.64 338.09H61.78L67.61 276.69C67.61 276.69 70.27 248.49 70.05 245.87C68.42 248.08 66.65 250.49 64.86 252.98C57.59 263.09 49.96 274.36 49.86 277.25C49.72 282.79 55.72 328.84 55.72 328.84L47.07 332.67C47.07 332.67 28.24 284.77 33.26 264.14C38.28 243.51 59 213.51 59 213.51L63 189.51L77.71 192.51L93.94 195.11C93.94 195.11 110.12 221.74 72.64 338.09Z" fill="white"/>
<path d="M56.2001 324.97L43.4301 329.36L46.2801 333.74L56.7701 329.99L56.2001 324.97Z" fill="#F16A49"/>
<path d="M74.2 336.61L60.55 334.75L61.22 339.85L72.5 341.27L74.2 336.61Z" fill="#F16A49"/>
<path opacity="0.2" d="M70.0501 245.87C68.4201 248.08 66.6501 250.49 64.8601 252.98C67.7201 238.16 71.0901 223.73 71.0901 223.73C71.5171 231.126 71.1686 238.547 70.0501 245.87V245.87Z" fill="black"/>
<path d="M63.9001 146.06C60.9001 146.2 48.3801 163.06 48.3801 163.06L43.7201 157C43.7201 157 36.5501 170.94 40.1001 177.57C43.6501 184.2 62.3501 166.07 62.3501 166.07L63.9001 146.06Z" fill="#263238"/>
<path opacity="0.2" d="M62.67 159.49L62.35 166.05C62.35 166.05 59.28 169.05 55.35 172.13C54.98 164.25 62.35 152.77 62.35 152.77L62.67 159.49Z" fill="black"/>
<path opacity="0.2" d="M48.38 163L49.05 164.28L47.05 171.87C47.05 171.87 52.43 166.97 49.05 162.17L48.38 163Z" fill="black"/>
<path d="M102.16 149.63C101.48 151.36 100.86 153.02 100.3 154.57C99.7401 156.12 99.1101 157.79 98.6001 159.27C97.3701 162.75 96.4101 165.76 95.6001 168.43C93.2401 176.68 92.8401 192.54 92.8401 192.54L63.2301 190.54C62.0301 171.7 61.7701 157.18 62.3201 152C62.9201 146.49 63.8601 146.28 63.8601 146.28L65.9401 146.12C68.3701 145.95 72.5401 145.7 76.3401 145.73C80.829 145.872 85.3045 146.296 89.7401 147C92.7468 147.453 95.7201 148.04 98.6601 148.76C99.8701 149 101 149.3 102.16 149.63Z" fill="#263238"/>
<path opacity="0.2" d="M74.2201 169.56C74.2201 169.56 82.3801 186.22 92.9101 191.62C93.0401 188.15 93.6201 175.5 95.6401 168.43C96.1801 166.52 96.8301 164.43 97.6401 162.14L94.4301 158.68C92.9463 161.457 91.9614 164.473 91.5201 167.59L81.0001 161L74.2201 169.56Z" fill="black"/>
<path opacity="0.6" d="M73.0801 195.54C73.9085 195.54 74.5801 194.868 74.5801 194.04C74.5801 193.212 73.9085 192.54 73.0801 192.54C72.2517 192.54 71.5801 193.212 71.5801 194.04C71.5801 194.868 72.2517 195.54 73.0801 195.54Z" fill="white"/>
<path d="M44.2401 158.36L48.0001 151.99L51.5301 155.32L48.3801 163.03L44.2401 158.36Z" fill="#EEC1BB"/>
<path d="M42.7301 157.64L43.9701 156.39L49.8901 163.03L49.0501 165.66L42.7301 157.64Z" fill="#F16A49"/>
<path d="M74.7401 155.84L71.3201 157.25L82.1601 169.57L84.3301 165.13L74.7401 155.84Z" fill="#EEC1BB"/>
<path d="M101.73 149.54C106.83 152.1 109.11 180.95 100.24 185.93C91.3701 190.91 78.1101 168.4 78.1101 168.4L83.2601 162.94C83.2601 162.94 94.0601 171.94 95.3601 171.15C96.6601 170.36 95.1801 161.48 95.1801 161.48C95.1801 161.48 93.6701 158.81 96.8601 154.61C100.05 150.41 101.73 149.54 101.73 149.54Z" fill="#263238"/>
<path d="M78.0201 170.4L76.4701 169.48L82.2601 161L84.3801 162.18L78.0201 170.4Z" fill="#F16A49"/>
<path d="M92.5001 192.54L93.7501 195.62L62.2301 194.04L62.8901 190.25L92.5001 192.54Z" fill="#F16A49"/>
<path d="M75.8601 191.39L75.4901 194.86C75.4699 195.04 75.3804 195.206 75.2405 195.322C75.1005 195.437 74.9211 195.494 74.7401 195.48L70.1201 195.12C69.9333 195.102 69.7612 195.011 69.6413 194.867C69.5214 194.723 69.4634 194.537 69.4801 194.35L69.8001 190.94C69.8179 190.757 69.906 190.588 70.0459 190.469C70.1858 190.349 70.3666 190.289 70.5501 190.3L75.2101 190.62C75.304 190.626 75.3956 190.651 75.4795 190.694C75.5635 190.736 75.638 190.795 75.6987 190.867C75.7593 190.939 75.8049 191.022 75.8326 191.112C75.8604 191.202 75.8697 191.296 75.8601 191.39Z" fill="white"/>
<path d="M77.37 152C84.84 150.66 86.94 147.33 86.94 147.33C81.94 143.08 85.5 135.08 85.5 135.08L76.5 137.23C76.7763 138.478 76.9601 139.745 77.05 141.02C77.4 146.51 74.92 146.69 74.92 146.69C73.52 149.69 77.37 152 77.37 152Z" fill="#EEC1BB"/>
<path opacity="0.2" d="M76.54 137.18C76.8163 138.428 77.0001 139.695 77.09 140.97C81.4 139.73 85.5 135.03 85.5 135.03L76.54 137.18Z" fill="black"/>
<path d="M77.2101 111.52C69.3501 112.23 67.2101 116.66 67.3501 124.81C67.5401 134.99 70.4301 141.98 80.0601 138.94C93.1401 134.8 90.2501 110.35 77.2101 111.52Z" fill="#EEC1BB"/>
<path d="M72.39 123.92C71.8664 125.15 71.1947 126.312 70.39 127.38C70.6487 127.684 70.9866 127.91 71.3661 128.034C71.7456 128.157 72.152 128.173 72.54 128.08L72.39 123.92Z" fill="#D4827D"/>
<path d="M77.14 122.84C77.14 123.49 77.57 123.99 78 123.96C78.43 123.93 78.75 123.38 78.7 122.74C78.65 122.1 78.28 121.59 77.84 121.62C77.4 121.65 77.1 122.19 77.14 122.84Z" fill="#263238"/>
<path d="M78 121.64L76.55 121.18C76.55 121.18 77.36 122.32 78 121.64Z" fill="#263238"/>
<path d="M69.09 123.24C69.09 123.89 69.52 124.39 69.95 124.36C70.38 124.33 70.7001 123.78 70.6501 123.14C70.6001 122.5 70.2301 121.99 69.8001 122.02C69.3701 122.05 69.05 122.59 69.09 123.24Z" fill="#263238"/>
<path d="M70 122L68.55 121.54C68.55 121.54 69.31 122.72 70 122Z" fill="#263238"/>
<path d="M76.7301 117.41C77.345 117.278 77.9822 117.288 78.5925 117.441C79.2027 117.593 79.7698 117.884 80.2501 118.29" stroke="#263238" stroke-width="0.72468" stroke-linecap="round" stroke-linejoin="round"/>
<path d="M71.0001 117.59C70.4513 117.502 69.8899 117.541 69.3581 117.702C68.8263 117.863 68.338 118.143 67.9301 118.52" stroke="#263238" stroke-width="0.72468" stroke-linecap="round" stroke-linejoin="round"/>
<path d="M87.0001 124C87.0001 124 82.7501 117.88 82.8601 112.85C82.8601 112.85 66.7201 107.85 67.3701 123.76C67.3701 123.76 64.5901 109.86 78.0601 108.34C91.5301 106.82 93.2601 126.57 86.8101 133.08C86.7901 133.07 89.6201 127.83 87.0001 124Z" fill="#263238"/>
<path d="M85.85 125.77C85.8447 124.855 86.201 123.975 86.8416 123.321C87.4821 122.667 88.355 122.293 89.27 122.28C91.73 122.33 93.34 127.22 87.4 128.97C86.54 129.22 86 128.42 85.85 125.77Z" fill="#EEC1BB"/>
<path d="M73.0901 131.39C73.0901 131.39 76.3901 131.66 77.3001 128.61" stroke="#263238" stroke-width="0.707962" stroke-linecap="round" stroke-linejoin="round"/>
<path d="M98.7001 148.71C98.3601 148.99 91.3301 154.59 76.9901 152.78C65.6201 151.34 63.9901 148.22 65.9901 146.07C68.4201 145.9 72.5901 145.65 76.3901 145.68C80.879 145.822 85.3544 146.246 89.7901 146.95C92.7901 147.403 95.7601 147.99 98.7001 148.71Z" fill="#EEC1BB"/>
<path d="M49.77 146.22L51.59 154.35C51.7217 154.836 52.0072 155.266 52.4038 155.576C52.8004 155.886 53.2867 156.059 53.79 156.07H70.07C70.2883 156.088 70.5076 156.052 70.7093 155.967C70.911 155.882 71.0891 155.749 71.2285 155.58C71.3679 155.411 71.4645 155.211 71.51 154.997C71.5555 154.783 71.5487 154.561 71.49 154.35L69.67 146.22C69.5403 145.735 69.2566 145.305 68.8618 144.995C68.4669 144.685 67.982 144.511 67.48 144.5H51.19C50.9724 144.485 50.7542 144.522 50.5537 144.608C50.3531 144.693 50.1761 144.826 50.0372 144.994C49.8982 145.163 49.8015 145.362 49.7551 145.575C49.7086 145.788 49.7137 146.009 49.77 146.22V146.22Z" fill="#F16A49"/>
<path opacity="0.2" d="M49.77 146.22L51.59 154.35C51.7217 154.836 52.0072 155.266 52.4038 155.576C52.8004 155.886 53.2867 156.059 53.79 156.07H68.55C68.7683 156.088 68.9876 156.052 69.1893 155.967C69.391 155.882 69.5691 155.749 69.7085 155.58C69.8479 155.411 69.9445 155.211 69.99 154.997C70.0355 154.783 70.0287 154.561 69.97 154.35L68.15 146.22C68.0223 145.741 67.7446 145.316 67.3577 145.007C66.9709 144.697 66.4951 144.52 66 144.5H51.19C50.9724 144.485 50.7542 144.522 50.5537 144.608C50.3531 144.693 50.1761 144.826 50.0372 144.994C49.8982 145.163 49.8015 145.362 49.7551 145.575C49.7086 145.788 49.7137 146.009 49.77 146.22V146.22Z" fill="black"/>
<path d="M64.56 150.43C65.49 149.75 70.56 147.68 71.34 148.43C72.12 149.18 74.34 155.33 75.34 156.13C74.4681 157.316 73.537 158.458 72.55 159.55C71.6047 159.42 70.676 159.189 69.78 158.86C69 158.45 63.64 151.11 64.56 150.43Z" fill="#EEC1BB"/>
<path d="M52.9101 152.56C52.7801 152.27 50.5601 146.81 49.9101 146.92C49.2601 147.03 46.7601 149.65 46.9901 150.44C47.2201 151.23 49.4901 157 50.4101 157C51.3301 157 53.3401 157 53.3401 157C53.5058 155.506 53.3594 153.994 52.9101 152.56V152.56Z" fill="#EEC1BB"/>
<path d="M82.75 112.51C82.75 112.51 79.92 116.45 85.05 122.56" stroke="#263238" stroke-width="0.707962" stroke-linecap="round" stroke-linejoin="round"/>
</g>
<defs>
<clipPath id="clip0">
<rect width="397" height="371" fill="white"/>
</clipPath>
</defs>
</svg>
