<svg width="372" height="747" viewBox="0 0 372 747" fill="none" xmlns="http://www.w3.org/2000/svg">
<path d="M371.751 176.983H367.659V64.883C367.659 56.3625 365.981 47.9253 362.72 40.0534C359.459 32.1814 354.68 25.0288 348.655 19.0038C342.63 12.9789 335.478 8.19961 327.606 4.93893C319.734 1.67826 311.297 1.52588e-05 302.776 1.52588e-05H65.269C48.061 1.52588e-05 31.5577 6.83588 19.3898 19.0038C7.22186 31.1717 0.386002 47.675 0.386002 64.883V679.883C0.386002 688.404 2.06423 696.841 5.32491 704.713C8.58558 712.585 13.3648 719.737 19.3898 725.762C25.4147 731.787 32.5674 736.566 40.4393 739.827C48.3113 743.088 56.7484 744.766 65.269 744.766H302.776C319.984 744.766 336.487 737.93 348.655 725.762C360.822 713.594 367.658 697.091 367.658 679.883V256.778H371.75L371.751 176.983Z" fill="#E6E6E6"/>
<path d="M305.394 16.874H274.394C275.82 20.3696 276.364 24.1622 275.979 27.9177C275.593 31.6731 274.29 35.2762 272.184 38.4094C270.078 41.5426 267.234 44.1098 263.902 45.8848C260.57 47.6598 256.853 48.5881 253.078 48.588H117.013C113.238 48.5878 109.521 47.6593 106.189 45.8841C102.858 44.109 100.014 41.5417 97.9081 38.4086C95.8024 35.2754 94.4995 31.6725 94.1143 27.9172C93.7291 24.1619 94.2733 20.3694 95.699 16.874H66.743C53.8922 16.874 41.5677 21.979 32.4809 31.0659C23.394 40.1527 18.289 52.4772 18.289 65.328V679.435C18.289 692.286 23.394 704.61 32.4809 713.697C41.5677 722.784 53.8922 727.889 66.743 727.889H305.394C318.245 727.889 330.569 722.784 339.656 713.697C348.743 704.61 353.848 692.286 353.848 679.435V679.435V65.327C353.848 52.4764 348.743 40.1522 339.656 31.0655C330.569 21.9788 318.245 16.874 305.394 16.874V16.874Z" fill="white"/>
<path d="M155.658 261.503C155.657 257.21 156.787 252.993 158.934 249.276C161.081 245.559 164.169 242.473 167.888 240.329C164.171 238.182 159.955 237.052 155.663 237.052C151.37 237.051 147.154 238.18 143.436 240.326C139.719 242.472 136.632 245.559 134.486 249.276C132.34 252.993 131.21 257.209 131.21 261.502C131.21 265.794 132.34 270.01 134.486 273.727C136.632 277.444 139.719 280.531 143.436 282.677C147.154 284.823 151.37 285.952 155.663 285.952C159.955 285.951 164.171 284.821 167.888 282.674C164.17 280.53 161.081 277.445 158.935 273.728C156.788 270.012 155.657 265.795 155.658 261.503V261.503Z" fill="#CCCCCC"/>
<path d="M186.395 261.503C186.394 257.21 187.524 252.993 189.671 249.276C191.818 245.559 194.906 242.473 198.625 240.329C194.908 238.182 190.692 237.052 186.4 237.052C182.107 237.051 177.891 238.18 174.173 240.326C170.456 242.472 167.369 245.559 165.223 249.276C163.077 252.993 161.947 257.209 161.947 261.502C161.947 265.794 163.077 270.01 165.223 273.727C167.369 277.444 170.456 280.531 174.173 282.677C177.891 284.823 182.107 285.952 186.4 285.952C190.692 285.951 194.908 284.821 198.625 282.674C194.907 280.53 191.818 277.445 189.672 273.728C187.525 270.012 186.394 265.795 186.395 261.503V261.503Z" fill="#CCCCCC"/>
<path d="M216.434 285.952C229.937 285.952 240.884 275.005 240.884 261.502C240.884 247.999 229.937 237.052 216.434 237.052C202.931 237.052 191.984 247.999 191.984 261.502C191.984 275.005 202.931 285.952 216.434 285.952Z" fill="#F16A49"/>
<path d="M257.296 337.869H114.796C113.439 337.867 112.139 337.328 111.18 336.369C110.22 335.409 109.681 334.109 109.679 332.752V190.252C109.681 188.895 110.22 187.595 111.18 186.635C112.139 185.676 113.439 185.137 114.796 185.135H257.296C258.653 185.137 259.953 185.676 260.913 186.635C261.872 187.595 262.411 188.895 262.413 190.252V332.752C262.411 334.109 261.872 335.409 260.913 336.369C259.953 337.328 258.653 337.867 257.296 337.869V337.869ZM114.796 187.183C113.982 187.184 113.202 187.508 112.626 188.083C112.051 188.659 111.727 189.439 111.726 190.253V332.753C111.727 333.567 112.051 334.347 112.626 334.923C113.202 335.499 113.982 335.822 114.796 335.823H257.296C258.11 335.822 258.89 335.499 259.466 334.923C260.042 334.347 260.365 333.567 260.366 332.753V190.253C260.365 189.439 260.042 188.659 259.466 188.083C258.89 187.508 258.11 187.184 257.296 187.183H114.796Z" fill="#CCCCCC"/>
<path d="M289.114 447.102H70.562V449.149H289.114V447.102Z" fill="#CCCCCC"/>
<path d="M77.464 434.322C81.2759 434.322 84.366 431.232 84.366 427.42C84.366 423.608 81.2759 420.518 77.464 420.518C73.6521 420.518 70.562 423.608 70.562 427.42C70.562 431.232 73.6521 434.322 77.464 434.322Z" fill="#F16A49"/>
<path d="M289.114 516.118H70.562V518.165H289.114V516.118Z" fill="#CCCCCC"/>
<path d="M77.464 503.339C81.2759 503.339 84.366 500.249 84.366 496.437C84.366 492.625 81.2759 489.535 77.464 489.535C73.6521 489.535 70.562 492.625 70.562 496.437C70.562 500.249 73.6521 503.339 77.464 503.339Z" fill="#F16A49"/>
<path d="M285.114 594.71H216.046C214.853 594.709 213.709 594.235 212.866 593.391C212.022 592.547 211.547 591.403 211.546 590.21V566.002C211.547 564.809 212.022 563.665 212.866 562.822C213.709 561.978 214.853 561.504 216.046 561.502H285.114C286.308 561.504 287.451 561.978 288.295 562.822C289.139 563.665 289.613 564.809 289.614 566.002V590.21C289.613 591.403 289.139 592.547 288.295 593.391C287.451 594.235 286.308 594.709 285.114 594.71V594.71Z" fill="#F16A49"/>
<path d="M99.978 434.322C103.79 434.322 106.88 431.232 106.88 427.42C106.88 423.608 103.79 420.518 99.978 420.518C96.1661 420.518 93.076 423.608 93.076 427.42C93.076 431.232 96.1661 434.322 99.978 434.322Z" fill="#F16A49"/>
<path d="M122.492 434.322C126.304 434.322 129.394 431.232 129.394 427.42C129.394 423.608 126.304 420.518 122.492 420.518C118.68 420.518 115.59 423.608 115.59 427.42C115.59 431.232 118.68 434.322 122.492 434.322Z" fill="#F16A49"/>
<path d="M99.978 503.339C103.79 503.339 106.88 500.249 106.88 496.437C106.88 492.625 103.79 489.535 99.978 489.535C96.1661 489.535 93.076 492.625 93.076 496.437C93.076 500.249 96.1661 503.339 99.978 503.339Z" fill="#F16A49"/>
<path d="M122.492 503.339C126.304 503.339 129.394 500.249 129.394 496.437C129.394 492.625 126.304 489.535 122.492 489.535C118.68 489.535 115.59 492.625 115.59 496.437C115.59 500.249 118.68 503.339 122.492 503.339Z" fill="#F16A49"/>
</svg>
