<svg width="475" height="999" viewBox="0 0 475 999" fill="none" xmlns="http://www.w3.org/2000/svg">
<g clip-path="url(#clip0)">
<path d="M274.789 508.969H270.46L280.12 486.16H284.656L294.522 508.969H289.987L287.393 502.748H279.834L281.282 499.079H285.865L282.284 490.514L274.789 508.969ZM304.784 486.16V505.3H313.823V508.969H300.567V486.16H304.784ZM336.657 486.16V489.796H325.262V495.538H336.115V499.319H325.214V505.3H336.879V508.969H321.077V486.16H336.657ZM344.037 508.937V486.16H354.381C359.028 486.16 361.352 488.196 361.352 492.269C361.352 495.023 359.543 497.304 355.925 499.111L363.134 508.969H357.819L350.896 499.032V497.102C354.928 496.41 356.944 494.842 356.944 492.396C356.944 490.716 355.999 489.876 354.111 489.876H348.334V508.937H344.037ZM383.278 486.16V489.828H376.752V508.969H372.536V489.828H366.011V486.16H383.278Z" fill="white"/>
<path d="M141.684 508.012V504.184C143.965 505.034 146.543 505.46 149.418 505.46C152.908 505.46 154.654 504.29 154.654 501.951C154.654 500.249 153.582 499.398 151.439 499.398H147.874C143.217 499.398 140.888 497.272 140.888 493.018C140.888 488.34 144.203 486 150.834 486C153.381 486 155.794 486.372 158.075 487.117V490.945C155.794 490.094 153.381 489.669 150.834 489.669C147.015 489.669 145.105 490.785 145.105 493.018C145.105 494.72 146.028 495.57 147.874 495.57H151.439C156.394 495.57 158.871 497.697 158.871 501.951C158.871 506.736 155.72 509.128 149.418 509.128C146.543 509.128 143.965 508.756 141.684 508.012ZM165.711 508.969V486.16H170.087L177.805 503.466L185.365 486.16H189.582V508.969H185.683V493.082L179.508 508.969H175.912L169.61 493.082V508.969H165.711ZM199.955 508.969H195.626L205.286 486.16H209.821L219.688 508.969H215.153L212.559 502.748H205L206.448 499.079H211.031L207.45 490.514L199.955 508.969ZM225.732 508.937V486.16H236.076C240.723 486.16 243.047 488.196 243.047 492.269C243.047 495.023 241.238 497.304 237.62 499.111L244.829 508.969H239.514L232.591 499.032V497.102C236.623 496.41 238.639 494.842 238.639 492.396C238.639 490.716 237.694 489.876 235.806 489.876H230.029V508.937H225.732ZM264.973 486.16V489.828H258.448V508.969H254.231V489.828H247.706V486.16H264.973Z" fill="white"/>
<path fill-rule="evenodd" clip-rule="evenodd" d="M109.928 521H109.924C107.739 520.998 105.671 520.033 104.102 518.281C103.562 517.681 103.611 516.753 104.211 516.214C104.811 515.671 105.735 515.72 106.275 516.323C107.285 517.451 108.581 518.07 109.926 518.07H109.928C111.278 518.07 112.58 517.451 113.592 516.321C114.133 515.722 115.057 515.673 115.656 516.214C116.256 516.755 116.305 517.683 115.765 518.283C114.19 520.035 112.118 521 109.928 521Z" fill="white"/>
<path fill-rule="evenodd" clip-rule="evenodd" d="M110.023 481.931C103.211 481.931 98.463 487.279 98.463 492.079C98.463 496.14 97.3383 498.018 96.3443 499.674C95.5473 501.004 94.9176 502.055 94.9176 504.339C95.2431 508.023 97.6696 509.959 110.023 509.959C122.307 509.959 124.81 507.937 125.133 504.212C125.128 502.055 124.498 501.004 123.701 499.674C122.707 498.018 121.582 496.14 121.582 492.079C121.582 487.279 116.834 481.931 110.023 481.931ZM110.023 512.889C100.909 512.889 92.6724 512.245 92 504.464C91.9942 501.244 92.9744 499.607 93.8399 498.166C94.7151 496.704 95.5395 495.327 95.5395 492.079C95.5395 485.763 101.359 479 110.023 479C118.686 479 124.506 485.763 124.506 492.079C124.506 495.327 125.33 496.704 126.205 498.166C127.07 499.607 128.051 501.244 128.051 504.339C127.371 512.244 119.136 512.889 110.023 512.889Z" fill="white"/>
</g>
<defs>
<clipPath id="clip0">
<rect width="291" height="42" fill="white" transform="translate(92 479)"/>
</clipPath>
</defs>
</svg>
