<svg width="475" height="999" viewBox="0 0 475 999" fill="none" xmlns="http://www.w3.org/2000/svg">
<path d="M139.465 529.297V526.484C141.145 527.109 143.043 527.422 145.16 527.422C147.73 527.422 149.016 526.562 149.016 524.844C149.016 523.594 148.227 522.969 146.648 522.969H144.023C140.594 522.969 138.879 521.406 138.879 518.281C138.879 514.844 141.32 513.125 146.203 513.125C148.078 513.125 149.855 513.398 151.535 513.945V516.758C149.855 516.133 148.078 515.82 146.203 515.82C143.391 515.82 141.984 516.641 141.984 518.281C141.984 519.531 142.664 520.156 144.023 520.156H146.648C150.297 520.156 152.121 521.719 152.121 524.844C152.121 528.359 149.801 530.117 145.16 530.117C143.043 530.117 141.145 529.844 139.465 529.297ZM157.158 530V513.242H160.38L166.064 525.957L171.63 513.242H174.736V530H171.865V518.328L167.318 530H164.67L160.029 518.328V530H157.158ZM182.374 530H179.187L186.3 513.242H189.64L196.905 530H193.566L191.655 525.43H186.089L187.155 522.734H190.53L187.894 516.441L182.374 530ZM201.356 529.977V513.242H208.973C212.395 513.242 214.106 514.738 214.106 517.73C214.106 519.754 212.774 521.43 210.11 522.758L215.419 530H211.505L206.407 522.699V521.281C209.376 520.773 210.86 519.621 210.86 517.824C210.86 516.59 210.165 515.973 208.774 515.973H204.52V529.977H201.356ZM230.252 513.242V515.938H225.448V530H222.342V515.938H217.537V513.242H230.252Z" fill="white"/>
<path d="M248.48 530H245.293L252.406 513.242H255.746L263.012 530H259.672L257.762 525.43H252.195L253.262 522.734H256.637L254 516.441L248.48 530ZM270.568 513.242V527.305H277.224V530H267.462V513.242H270.568ZM294.038 513.242V515.914H285.648V520.133H293.64V522.91H285.612V527.305H294.202V530H282.566V513.242H294.038ZM299.473 529.977V513.242H307.091C310.513 513.242 312.223 514.738 312.223 517.73C312.223 519.754 310.891 521.43 308.227 522.758L313.536 530H309.622L304.524 522.699V521.281C307.493 520.773 308.977 519.621 308.977 517.824C308.977 516.59 308.282 515.973 306.891 515.973H302.638V529.977H299.473ZM328.37 513.242V515.938H323.565V530H320.459V515.938H315.655V513.242H328.37Z" fill="white"/>
<path fill-rule="evenodd" clip-rule="evenodd" d="M237.869 470.581C231.493 470.581 227.049 475.293 227.049 479.522C227.049 483.099 225.997 484.753 225.066 486.213C224.32 487.385 223.731 488.31 223.731 490.322C224.036 493.568 226.307 495.273 237.869 495.273C249.368 495.273 251.71 493.492 252.013 490.21C252.007 488.31 251.418 487.385 250.672 486.213C249.742 484.753 248.689 483.099 248.689 479.522C248.689 475.293 244.245 470.581 237.869 470.581M237.869 497.855C229.339 497.855 221.629 497.287 221 490.432C220.995 487.596 221.912 486.154 222.722 484.884C223.541 483.597 224.313 482.384 224.313 479.522C224.313 473.958 229.76 468 237.869 468C245.978 468 251.426 473.958 251.426 479.522C251.426 482.384 252.197 483.597 253.016 484.884C253.826 486.154 254.744 487.596 254.744 490.322C254.107 497.287 246.4 497.855 237.869 497.855" fill="white"/>
<path fill-rule="evenodd" clip-rule="evenodd" d="M237.78 505H237.777C235.731 504.998 233.796 504.148 232.327 502.604C231.822 502.076 231.868 501.259 232.43 500.784C232.991 500.305 233.856 500.348 234.361 500.88C235.306 501.873 236.52 502.419 237.778 502.419H237.78C239.044 502.419 240.263 501.873 241.21 500.878C241.717 500.35 242.582 500.307 243.142 500.784C243.704 501.26 243.749 502.078 243.244 502.606C241.77 504.15 239.831 505 237.78 505" fill="white"/>
</svg>
