<svg width="223" height="233" viewBox="0 0 223 233" fill="none" xmlns="http://www.w3.org/2000/svg">
<path fill-rule="evenodd" clip-rule="evenodd" d="M111.5 212.581C161.848 212.581 202.663 171.766 202.663 121.418C202.663 71.0703 161.848 30.2555 111.5 30.2555C61.1523 30.2555 20.3375 71.0703 20.3375 121.418C20.3375 171.766 61.1523 212.581 111.5 212.581Z" stroke="#43675B" stroke-width="0.613889" stroke-dasharray="3.68 3.68"/>
<path fill-rule="evenodd" clip-rule="evenodd" d="M111.5 231.918C172.527 231.918 222 182.445 222 121.418C222 60.3906 172.527 10.918 111.5 10.918C50.4725 10.918 1 60.3906 1 121.418C1 182.445 50.4725 231.918 111.5 231.918Z" stroke="#43675B" stroke-width="0.613889" stroke-dasharray="3.68 3.68"/>
<path d="M119.149 8.85229H98.9183C98.5793 8.85229 98.3044 9.12714 98.3044 9.46618V9.57975C98.3044 9.91879 98.5793 10.1936 98.9183 10.1936H119.149C119.488 10.1936 119.763 9.91879 119.763 9.57975V9.46618C119.763 9.12714 119.488 8.85229 119.149 8.85229Z" fill="#DBDBDB"/>
<path d="M124.321 10.3894C124.873 10.3894 125.321 9.94169 125.321 9.3894C125.321 8.83712 124.873 8.3894 124.321 8.3894C123.769 8.3894 123.321 8.83712 123.321 9.3894C123.321 9.94169 123.769 10.3894 124.321 10.3894Z" fill="#DBDBDB"/>
<g opacity="0.5">
<path opacity="0.5" d="M108.897 116.924C124.144 116.924 136.504 104.564 136.504 89.3178C136.504 74.0711 124.144 61.7112 108.897 61.7112C93.6504 61.7112 81.2905 74.0711 81.2905 89.3178C81.2905 104.564 93.6504 116.924 108.897 116.924Z" fill="url(#paint0_linear)"/>
</g>
<path d="M111.5 168.001C137.733 168.001 159 146.734 159 120.5C159 94.2664 137.733 73 111.5 73C85.2666 73 64 94.2664 64 120.5C64 146.734 85.2666 168.001 111.5 168.001Z" fill="#f16a49"/>
<path d="M90.884 114.159L108.694 130.488L133.929 93.3802L142.839 100.804L108.694 145.335L83.4602 117.133L90.884 114.159Z" fill="#FDFDFD"/>
<defs>
<linearGradient id="paint0_linear" x1="108.897" y1="116.924" x2="108.897" y2="61.7081" gradientUnits="userSpaceOnUse">
<stop stop-color="#808080" stop-opacity="0.25"/>
<stop offset="0.54" stop-color="#808080" stop-opacity="0.12"/>
<stop offset="1" stop-color="#808080" stop-opacity="0.1"/>
</linearGradient>
</defs>
</svg>
