<?xml version="1.0" encoding="UTF-8"?>
<!DOCTYPE svg PUBLIC "-//W3C//DTD SVG 1.1//EN" "http://www.w3.org/Graphics/SVG/1.1/DTD/svg11.dtd">
<svg xmlns="http://www.w3.org/2000/svg" version="1.1" width="464px" height="634px" style="shape-rendering:geometricPrecision; text-rendering:geometricPrecision; image-rendering:optimizeQuality; fill-rule:evenodd; clip-rule:evenodd" xmlns:xlink="http://www.w3.org/1999/xlink">
<g><path style="opacity:1" fill="#fb785b" d="M 22.5,-0.5 C 161.833,-0.5 301.167,-0.5 440.5,-0.5C 452.062,2.72774 459.728,10.0611 463.5,21.5C 463.5,218.5 463.5,415.5 463.5,612.5C 460.321,622.346 453.987,629.346 444.5,633.5C 302.5,633.5 160.5,633.5 18.5,633.5C 9.01262,629.346 2.67928,622.346 -0.5,612.5C -0.5,415.5 -0.5,218.5 -0.5,21.5C 3.27162,10.0611 10.9383,2.72774 22.5,-0.5 Z"/></g>
<g><path style="opacity:1" fill="#b8a49f" d="M 432.5,9.5 C 423.801,7.58549 415.467,8.58549 407.5,12.5C 409.965,10.1633 412.965,8.66326 416.5,8C 421.167,7.33333 425.833,7.33333 430.5,8C 431.416,8.27842 432.082,8.77842 432.5,9.5 Z"/></g>
<g><path style="opacity:1" fill="#fdfaf9" d="M 432.5,9.5 C 450.708,15.5769 458.541,28.2436 456,47.5C 448.101,69.3986 432.934,77.232 410.5,71C 400.264,66.2693 393.931,58.436 391.5,47.5C 390.645,32.8841 395.978,21.2175 407.5,12.5C 415.467,8.58549 423.801,7.58549 432.5,9.5 Z"/></g>
<g><path style="opacity:1" fill="#b2a5a2" d="M 407.5,12.5 C 395.978,21.2175 390.645,32.8841 391.5,47.5C 388.8,34.1095 392.8,22.9429 403.5,14C 404.745,13.2086 406.078,12.7086 407.5,12.5 Z"/></g>
<g><path style="opacity:1" fill="#f06445" d="M 405.5,21.5 C 418.581,33.0774 431.247,45.2441 443.5,58C 442.667,58.8333 441.833,59.6667 441,60.5C 438.833,58.3333 436.667,56.1667 434.5,54C 425.256,53.8192 416.089,53.3192 407,52.5C 406.333,45.1667 406.333,37.8333 407,30.5C 407.75,29.8742 408.584,29.3742 409.5,29C 408,27.5 406.5,26 405,24.5C 404.53,23.4232 404.697,22.4232 405.5,21.5 Z"/></g>
<g><path style="opacity:1" fill="#f06546" d="M 418.5,24.5 C 424.473,23.303 429.473,24.803 433.5,29C 435.891,29.2868 438.224,29.7868 440.5,30.5C 441.833,37.8333 441.833,45.1667 440.5,52.5C 434.58,49.1104 431.413,44.1104 431,37.5C 428.439,33.2503 424.606,31.417 419.5,32C 418.167,30.6667 416.833,29.3333 415.5,28C 416.71,26.9609 417.71,25.7942 418.5,24.5 Z"/></g>
<g><path style="opacity:1" fill="#fee7e2" d="M 435.5,32.5 C 439.31,33.7542 439.31,34.7542 435.5,35.5C 435.5,34.5 435.5,33.5 435.5,32.5 Z"/></g>
<g><path style="opacity:1" fill="#f16f52" d="M 423.5,34.5 C 426.263,34.7438 428.429,36.0771 430,38.5C 430.749,39.635 430.583,40.635 429.5,41.5C 426.734,39.7407 424.734,37.4073 423.5,34.5 Z"/></g>
<g><path style="opacity:1" fill="#fde1db" d="M 416.5,37.5 C 416.694,41.3353 418.361,44.5019 421.5,47C 423.657,47.0781 425.657,47.2448 427.5,47.5C 418.635,49.6303 414.968,46.2969 416.5,37.5 Z"/></g>
<g><path style="opacity:1" fill="#bcb1ae" d="M 247.5,183.5 C 232.111,183.158 216.777,183.824 201.5,185.5C 204.868,183.941 208.535,183.108 212.5,183C 224.341,182.174 236.007,182.341 247.5,183.5 Z"/></g>
<g><path style="opacity:1" fill="#e2dfdf" d="M 247.5,183.5 C 253.503,183.333 259.17,184.333 264.5,186.5C 242.45,183.627 220.45,183.96 198.5,187.5C 199.5,186.833 200.5,186.167 201.5,185.5C 216.777,183.824 232.111,183.158 247.5,183.5 Z"/></g>
<g><path style="opacity:1" fill="#fefefe" d="M 264.5,186.5 C 265.5,186.5 266.5,186.5 267.5,186.5C 267.953,187.458 268.619,188.292 269.5,189C 276.906,191.413 284.239,193.913 291.5,196.5C 331.419,216.943 355.919,249.277 365,293.5C 371.921,353.474 350.421,399.974 300.5,433C 246.215,461.179 194.549,457.179 145.5,421C 128.804,406.308 115.971,388.808 107,368.5C 105.523,364.57 104.356,360.57 103.5,356.5C 99.1109,334.603 98.4442,312.603 101.5,290.5C 113.507,237.156 145.84,202.823 198.5,187.5C 220.45,183.96 242.45,183.627 264.5,186.5 Z"/></g>
<g><path style="opacity:1" fill="#dbd6d5" d="M 267.5,186.5 C 275.82,189.267 283.82,192.601 291.5,196.5C 284.239,193.913 276.906,191.413 269.5,189C 268.619,188.292 267.953,187.458 267.5,186.5 Z"/></g>
<g><path style="opacity:1" fill="#b3a8a5" d="M 201.5,185.5 C 200.5,186.167 199.5,186.833 198.5,187.5C 145.84,202.823 113.507,237.156 101.5,290.5C 100.5,293.167 99.5,295.833 98.5,298.5C 104.778,254.422 127.112,221.255 165.5,199C 176.828,192.614 188.828,188.114 201.5,185.5 Z"/></g>
<g><path style="opacity:1" fill="#fc795c" d="M 134.5,304.5 C 135.167,304.5 135.5,304.833 135.5,305.5C 135.5,307.833 135.5,310.167 135.5,312.5C 137.833,312.5 140.167,312.5 142.5,312.5C 142.665,309.482 142.498,306.482 142,303.5C 140.961,302.29 139.794,301.29 138.5,300.5C 138.833,299.833 139.167,299.167 139.5,298.5C 143.819,297.965 148.152,297.465 152.5,297C 171.813,284.97 192.813,280.137 215.5,282.5C 225.209,282.421 234.875,282.921 244.5,284C 256.391,288.612 267.724,294.279 278.5,301C 294.146,302.496 309.48,305.496 324.5,310C 330.176,316.59 331.843,324.09 329.5,332.5C 322.836,335.466 315.836,336.966 308.5,337C 303.013,344.388 295.679,347.054 286.5,345C 283.084,343.75 280.417,341.583 278.5,338.5C 251.84,337.333 225.173,337.167 198.5,338C 194.259,337.709 191.259,339.376 189.5,343C 182.047,348.579 174.38,348.913 166.5,344C 164.647,341.96 163.314,339.627 162.5,337C 153.747,336.226 145.08,334.892 136.5,333C 135.069,332.535 133.903,331.701 133,330.5C 132.683,321.716 133.183,313.049 134.5,304.5 Z"/></g>
<g><path style="opacity:1" fill="#fff9f8" d="M 208.5,284.5 C 211.777,284.216 214.943,284.549 218,285.5C 219.376,290.755 220.209,296.088 220.5,301.5C 211.779,301.804 203.112,301.471 194.5,300.5C 193.342,295.901 192.675,291.234 192.5,286.5C 197.986,285.982 203.319,285.315 208.5,284.5 Z"/></g>
<g><path style="opacity:1" fill="#fffbfa" d="M 223.5,285.5 C 237.389,284.552 249.722,288.385 260.5,297C 256.682,297.613 255.682,299.613 257.5,303C 248.516,302.901 239.516,302.568 230.5,302C 227.491,296.813 225.158,291.313 223.5,285.5 Z"/></g>
<g><path style="opacity:1" fill="#fffaf9" d="M 187.5,287.5 C 188.833,287.5 190.167,287.5 191.5,287.5C 191.467,291.869 191.8,296.202 192.5,300.5C 187.821,300.666 183.155,300.499 178.5,300C 176.604,298.192 176.104,296.025 177,293.5C 180.351,291.079 183.851,289.079 187.5,287.5 Z"/></g>
<g><path style="opacity:1" fill="#fea693" d="M 139.5,298.5 C 139.167,299.167 138.833,299.833 138.5,300.5C 137.065,301.913 136.065,303.58 135.5,305.5C 135.5,304.833 135.167,304.5 134.5,304.5C 134.772,301.268 136.438,299.268 139.5,298.5 Z"/></g>
<g><path style="opacity:1" fill="#fffafa" d="M 138.5,300.5 C 139.794,301.29 140.961,302.29 142,303.5C 142.498,306.482 142.665,309.482 142.5,312.5C 140.167,312.5 137.833,312.5 135.5,312.5C 135.5,310.167 135.5,307.833 135.5,305.5C 136.065,303.58 137.065,301.913 138.5,300.5 Z"/></g>
<g><path style="opacity:1" fill="#ffcabe" d="M 182.5,306.5 C 185.572,306.183 188.572,306.516 191.5,307.5C 190,307.833 188.5,308.167 187,308.5C 185.014,308.431 183.514,307.765 182.5,306.5 Z"/></g>
<g><path style="opacity:1" fill="#ffcabd" d="M 227.5,307.5 C 230.572,307.183 233.572,307.516 236.5,308.5C 235,308.833 233.5,309.167 232,309.5C 230.014,309.431 228.514,308.765 227.5,307.5 Z"/></g>
<g><path style="opacity:1" fill="#fffaf9" d="M 326.5,317.5 C 321.968,317.818 317.634,317.485 313.5,316.5C 314.136,313.205 316.136,311.872 319.5,312.5C 323.223,312.223 325.556,313.889 326.5,317.5 Z"/></g>
<g><path style="opacity:1" fill="#feb8a8" d="M 313.5,316.5 C 317.634,317.485 321.968,317.818 326.5,317.5C 321.985,318.812 317.318,318.812 312.5,317.5C 312.624,316.893 312.957,316.56 313.5,316.5 Z"/></g>
<g><path style="opacity:1" fill="#fffbfa" d="M 288.5,320.5 C 302.699,320.066 306.699,326.233 300.5,339C 287.668,344.493 281.834,340.326 283,326.5C 284.36,323.977 286.193,321.977 288.5,320.5 Z"/></g>
<g><path style="opacity:1" fill="#fffbfa" d="M 173.5,321.5 C 183.777,320.612 188.611,325.278 188,335.5C 184.855,342.128 179.688,344.295 172.5,342C 164.39,334.804 164.724,327.971 173.5,321.5 Z"/></g>
<g><path style="opacity:1" fill="#d6d2d1" d="M 101.5,290.5 C 98.4442,312.603 99.1109,334.603 103.5,356.5C 100.398,349.276 98.5643,341.609 98,333.5C 97.1739,321.659 97.3405,309.993 98.5,298.5C 99.5,295.833 100.5,293.167 101.5,290.5 Z"/></g>
</svg>
