<?xml version="1.0" encoding="UTF-8"?>
<!DOCTYPE svg PUBLIC "-//W3C//DTD SVG 1.1//EN" "http://www.w3.org/Graphics/SVG/1.1/DTD/svg11.dtd">
<svg xmlns="http://www.w3.org/2000/svg" version="1.1" width="174px" height="174px" style="shape-rendering:geometricPrecision; text-rendering:geometricPrecision; image-rendering:optimizeQuality; fill-rule:evenodd; clip-rule:evenodd" xmlns:xlink="http://www.w3.org/1999/xlink">
<g><path style="opacity:0.946" fill="#c0b6b2" d="M 69.5,-0.5 C 80.8333,-0.5 92.1667,-0.5 103.5,-0.5C 118.426,3.62962 132.093,10.463 144.5,20C 151.065,26.7279 157.065,33.8946 162.5,41.5C 167,50.6962 170.667,60.0295 173.5,69.5C 173.5,80.8333 173.5,92.1667 173.5,103.5C 170.667,112.971 167,122.304 162.5,131.5C 157.901,138.269 152.734,144.602 147,150.5C 134.271,161.675 119.771,169.342 103.5,173.5C 92.1667,173.5 80.8333,173.5 69.5,173.5C 54.574,169.37 40.9074,162.537 28.5,153C 21.9355,146.272 15.9355,139.105 10.5,131.5C 6.01437,122.356 2.3477,113.023 -0.5,103.5C -0.5,92.1667 -0.5,80.8333 -0.5,69.5C 2.3477,59.9772 6.01437,50.6439 10.5,41.5C 15.099,34.7313 20.2657,28.3979 26,22.5C 38.7293,11.325 53.2293,3.65829 69.5,-0.5 Z M 70.5,57.5 C 93.0173,54.9498 112.351,61.4498 128.5,77C 134.107,78.3235 139.774,79.3235 145.5,80C 148.376,80.4379 151.043,81.4379 153.5,83C 155.833,86 158.167,89 160.5,92C 159.726,94.405 159.226,96.905 159,99.5C 158.626,100.416 158.126,101.25 157.5,102C 154.243,103.043 150.91,103.543 147.5,103.5C 148.293,92.6294 143.293,86.6294 132.5,85.5C 124.18,86.9847 118.847,91.818 116.5,100C 116.585,101.107 116.919,102.107 117.5,103C 97.8362,103.5 78.1695,103.667 58.5,103.5C 58.5203,93.021 53.3536,87.021 43,85.5C 32.676,86.9944 27.5093,92.9944 27.5,103.5C 18.8174,103.986 15.3174,99.986 17,91.5C 18.2061,87.8446 19.5394,84.178 21,80.5C 28.4853,76.1067 36.3186,72.2734 44.5,69C 51.8834,62.1542 60.5501,58.3209 70.5,57.5 Z M 41.5,90.5 C 52.7847,92.2687 55.7847,98.2687 50.5,108.5C 43.3291,113.37 37.4958,112.036 33,104.5C 32.0561,101.653 32.5561,99.1529 34.5,97C 34.1667,96.6667 33.8333,96.3333 33.5,96C 35.5732,93.0597 38.2399,91.2264 41.5,90.5 Z M 130.5,90.5 C 140.726,90.8696 144.56,95.8696 142,105.5C 139.081,111.025 134.581,112.858 128.5,111C 122.514,106.832 121.014,101.332 124,94.5C 126.013,92.7518 128.18,91.4185 130.5,90.5 Z"/></g>
<g><path style="opacity:0.711" fill="#c0b6b2" d="M 73.5,61.5 C 75.8333,61.5 78.1667,61.5 80.5,61.5C 81.0978,66.813 81.4312,72.1463 81.5,77.5C 69.8502,77.4385 58.3502,77.4385 47,77.5C 45.6778,75.5256 46.1778,73.6922 48.5,72C 52.4519,69.1287 56.6186,66.6287 61,64.5C 65.2691,63.3551 69.4357,62.3551 73.5,61.5 Z"/></g>
<g><path style="opacity:0.722" fill="#c0b6b2" d="M 84.5,61.5 C 98.4314,61.4817 110.098,66.4817 119.5,76.5C 119.167,77.5 118.5,78.1667 117.5,78.5C 106.88,77.6892 96.2131,77.1892 85.5,77C 84.8041,72.8663 84.1375,68.6996 83.5,64.5C 84.1272,63.5832 84.4606,62.5832 84.5,61.5 Z"/></g>
</svg>
