<svg width="35" height="35" viewBox="0 0 35 35" fill="none" xmlns="http://www.w3.org/2000/svg">
<path d="M17.4998 2.91638C9.45859 2.91638 2.9165 9.45701 2.9165 17.4997C2.9165 18.2435 2.97338 18.9887 3.08421 19.7149C3.17171 20.2939 3.70984 20.6978 4.29171 20.6016C4.87067 20.5126 5.26734 19.9716 5.17984 19.3941C5.08505 18.7728 5.03692 18.1385 5.03692 17.4997C5.03692 10.628 10.6282 5.0368 17.4998 5.0368C24.3715 5.0368 29.9628 10.628 29.9628 17.4997C29.9628 24.3728 24.3715 29.9626 17.4998 29.9626C13.6017 29.9626 10.0011 28.1893 7.61963 25.0976C7.26088 24.6353 6.59588 24.5464 6.13359 24.9051C5.66838 25.261 5.58234 25.9274 5.93963 26.3926C8.72505 30.0078 12.9396 32.083 17.4998 32.083C25.5411 32.083 32.0832 25.541 32.0832 17.4997C32.0832 9.45701 25.5411 2.91638 17.4998 2.91638" fill="#FC6161"/>
<path d="M14.473 19.1702L13.4755 20.1677C13.0307 20.5906 13.0059 21.2921 13.4201 21.7456L13.4522 21.7689C13.878 22.1948 14.5634 22.2064 15.0024 21.7952L15.9955 20.8021C16.4461 20.3821 16.4709 19.6762 16.0509 19.2242C15.6295 18.775 14.9236 18.7487 14.473 19.1702" fill="#FC6161"/>
<path d="M20.6357 22.0969C21.0746 22.5155 21.7673 22.5067 22.1961 22.0794C22.2034 22.0707 22.2121 22.0648 22.218 22.0561C22.6467 21.6055 22.6292 20.8923 22.1771 20.4651L19.4967 17.7832L21.9613 15.3201C22.3186 14.9613 22.3915 14.4101 22.1392 13.9711C22.0882 13.8719 22.0211 13.783 21.9423 13.7042C21.5019 13.274 20.8005 13.2696 20.3557 13.694L17.8809 16.1703L15.1611 13.449C15.1567 13.4446 15.1538 13.4417 15.1494 13.4388C14.7134 13.013 14.0163 13.0217 13.5905 13.4578C13.1748 13.9186 13.1836 14.6215 13.6094 15.0736L20.5802 22.043L20.6357 22.0969Z" fill="#FC6161"/>
</svg>
