<svg width="24" height="24" viewBox="0 0 24 24" fill="none" xmlns="http://www.w3.org/2000/svg">
<path d="M18.301 3.52881C18.2133 3.52903 18.1272 3.50572 18.0516 3.46131C15.9713 2.34756 14.1727 1.87506 12.0165 1.87506C9.87101 1.87506 7.83382 2.40381 5.98085 3.46131C5.71882 3.60943 5.39585 3.50631 5.24397 3.23443C5.17618 3.10321 5.16089 2.9511 5.2012 2.80901C5.24151 2.66692 5.33441 2.5455 5.46101 2.46943C7.45946 1.33598 9.71898 0.743354 12.0165 0.750056C14.3241 0.750056 16.3398 1.27881 18.5504 2.46006C18.6794 2.53097 18.7754 2.64961 18.8179 2.79053C18.8604 2.93144 18.846 3.0834 18.7777 3.21381C18.7367 3.30639 18.67 3.38527 18.5855 3.4411C18.501 3.49693 18.4023 3.52737 18.301 3.52881V3.52881ZM2.79522 9.43506C2.68264 9.43426 2.57301 9.39891 2.48116 9.33381C2.36166 9.24499 2.28129 9.11327 2.25698 8.96637C2.23267 8.81948 2.26633 8.66888 2.35085 8.54631C3.42382 6.97131 4.78835 5.73381 6.41444 4.86756C9.81663 3.04693 14.1727 3.03381 17.5857 4.85631C19.2113 5.72256 20.5763 6.94881 21.6493 8.51256C21.7335 8.63524 21.7669 8.78574 21.7426 8.93253C21.7183 9.07932 21.6382 9.21103 21.519 9.30006C21.4611 9.34328 21.395 9.37419 21.3248 9.39085C21.2545 9.40751 21.1816 9.40958 21.1105 9.39692C21.0394 9.38427 20.9717 9.35716 20.9115 9.31728C20.8513 9.2774 20.7999 9.22559 20.7605 9.16506C19.7855 7.74756 18.5504 6.63381 17.0874 5.85756C13.9777 4.20381 10.0008 4.20381 6.90194 5.86881C5.42819 6.65631 4.19304 7.78131 3.21804 9.19693C3.17599 9.27142 3.11437 9.33299 3.03984 9.37496C2.96531 9.41694 2.88072 9.43772 2.79522 9.43506V9.43506ZM9.56726 23.0157C9.49565 23.0164 9.42472 23.0017 9.3593 22.9725C9.29387 22.9434 9.23546 22.9006 9.18804 22.8469C8.24538 21.8663 7.73444 21.2344 7.01022 19.8751C6.26022 18.4913 5.87257 16.8038 5.87257 14.9926C5.87257 11.6513 8.6246 8.92881 12.0057 8.92881C15.3868 8.92881 18.1407 11.6513 18.1407 14.9926C18.1428 15.065 18.1304 15.1372 18.1041 15.2048C18.0779 15.2723 18.0383 15.334 17.9878 15.386C17.9373 15.438 17.8769 15.4793 17.8101 15.5076C17.7433 15.5358 17.6716 15.5504 17.5991 15.5504C17.5266 15.5504 17.4548 15.5358 17.388 15.5076C17.3212 15.4793 17.2608 15.438 17.2103 15.386C17.1598 15.334 17.1202 15.2723 17.094 15.2048C17.0677 15.1372 17.0553 15.065 17.0574 14.9926C17.0574 12.2701 14.7924 10.0538 12.008 10.0538C9.22366 10.0538 6.95632 12.2701 6.95632 14.9926C6.95632 16.6126 7.30272 18.1088 7.96366 19.3238C8.65741 20.6176 9.13554 21.1688 9.96851 22.0463C10.0673 22.1555 10.122 22.2975 10.122 22.4447C10.122 22.592 10.0673 22.734 9.96851 22.8432C9.86215 22.9505 9.7183 23.0123 9.56726 23.0157V23.0157ZM17.3368 20.9344C16.0473 20.9344 14.9096 20.5969 13.9777 19.9332C13.1838 19.3767 12.5352 18.6376 12.0865 17.7781C11.6379 16.9187 11.4023 15.964 11.3996 14.9944C11.3966 14.9214 11.4083 14.8485 11.4342 14.7801C11.46 14.7117 11.4995 14.6492 11.5501 14.5964C11.6007 14.5437 11.6615 14.5017 11.7287 14.473C11.796 14.4443 11.8684 14.4295 11.9415 14.4295C12.0146 14.4295 12.087 14.4443 12.1542 14.473C12.2215 14.5017 12.2822 14.5437 12.3329 14.5964C12.3835 14.6492 12.4229 14.7117 12.4488 14.7801C12.4746 14.8485 12.4864 14.9214 12.4833 14.9944C12.4852 15.7819 12.6772 16.5573 13.0432 17.2547C13.4092 17.952 13.9382 18.5505 14.5852 18.9994C15.3544 19.5394 16.254 19.7963 17.3377 19.7963C17.7152 19.7896 18.0914 19.752 18.4627 19.6838C18.7552 19.6276 19.0369 19.8301 19.0908 20.1451C19.1183 20.2904 19.087 20.4408 19.0038 20.5631C18.9206 20.6854 18.7922 20.7697 18.6469 20.7976C18.2153 20.8828 17.7767 20.928 17.3368 20.9326V20.9344ZM15.1585 23.2501C15.1109 23.2481 15.0637 23.2405 15.0179 23.2276C13.2948 22.7326 12.1679 22.0688 10.9866 20.8651C9.46929 19.3013 8.63538 17.2201 8.63538 14.9926C8.63538 13.1701 10.1307 11.6851 11.9724 11.6851C13.8141 11.6851 15.3099 13.1701 15.3099 14.9926C15.3099 16.1963 16.3177 17.1751 17.5637 17.1751C18.8096 17.1751 19.8174 16.1963 19.8174 14.9926C19.8174 10.7513 16.2957 7.30881 11.9616 7.30881C8.88429 7.30881 6.0671 9.08631 4.7996 11.8426C4.37772 12.7538 4.16022 13.8226 4.16022 14.9926C4.16022 15.8701 4.23569 17.2538 4.88585 19.0538C4.9946 19.3463 4.85351 19.6726 4.57179 19.7738C4.50484 19.7993 4.43342 19.811 4.36183 19.8082C4.29025 19.8054 4.21996 19.7882 4.15521 19.7575C4.09045 19.7269 4.03256 19.6834 3.98501 19.6299C3.93746 19.5763 3.90123 19.5136 3.87851 19.4457C3.35569 18.0192 3.08786 16.5118 3.08726 14.9926C3.08726 13.6426 3.33663 12.4144 3.82413 11.3476C5.26554 8.20693 8.46194 6.17256 11.9616 6.17256C16.8919 6.17256 20.9012 10.1213 20.9012 14.9813C20.9012 16.8038 19.4058 18.2888 17.5637 18.2888C15.7215 18.2888 14.2262 16.8038 14.2262 14.9813C14.2266 13.7776 13.2188 12.7969 11.9729 12.7969C10.7269 12.7969 9.71913 13.7757 9.71913 14.9794C9.71913 16.9013 10.4344 18.7032 11.7455 20.0532C12.7768 21.1107 13.7612 21.6938 15.2888 22.1344C15.5813 22.2132 15.744 22.5282 15.668 22.8207C15.6444 22.9394 15.5811 23.0466 15.4885 23.1246C15.3959 23.2026 15.2795 23.2469 15.1585 23.2501V23.2501Z" fill="currentColor"/>
</svg>
