<svg width="24" height="24" viewBox="0 0 24 24" fill="none" xmlns="http://www.w3.org/2000/svg">
<path d="M22.0178 10.9969C21.6742 10.5408 20.3978 10.2267 19.8578 9.40594C19.3178 8.58516 18.8758 6.80766 17.5014 6.12469C16.127 5.44172 13.5001 5.25 12.0001 5.25C10.5001 5.25 7.87513 5.4375 6.49888 6.12328C5.12263 6.80906 4.68247 8.58516 4.14247 9.40453C3.60247 10.2239 2.32606 10.5408 1.98247 10.9969C1.63888 11.453 1.397 14.3363 1.54419 15.75C1.69138 17.1637 1.96606 18 1.96606 18H5.99731C6.65731 18 6.872 17.752 8.222 17.625C9.70325 17.4844 11.1564 17.4375 12.0001 17.4375C12.8439 17.4375 14.3439 17.4844 15.8242 17.625C17.1742 17.753 17.3959 18 18.0489 18H22.0333C22.0333 18 22.3079 17.1637 22.4551 15.75C22.6023 14.3363 22.3595 11.453 22.0178 10.9969ZM18.7501 18H21.3751V18.75H18.7501V18ZM2.62513 18H5.25013V18.75H2.62513V18Z" stroke="currentColor" stroke-linecap="round" stroke-linejoin="round"/>
<path d="M17.0844 14.492C16.8074 14.1718 15.9046 13.9046 14.7093 13.7256C13.5139 13.5465 13.078 13.5001 12.0093 13.5001C10.9405 13.5001 10.4544 13.577 9.30878 13.7256C8.16316 13.8741 7.303 14.1385 6.93409 14.492C6.3805 15.0282 7.19144 15.6301 7.828 15.7032C8.44488 15.7735 9.67816 15.7477 12.0144 15.7477C14.3507 15.7477 15.5839 15.7735 16.2008 15.7032C16.8364 15.6259 17.5893 15.0657 17.0844 14.492ZM20.2297 11.3931C20.2271 11.3558 20.2108 11.3209 20.184 11.2949C20.1572 11.269 20.1217 11.2538 20.0844 11.2524C19.5308 11.2327 18.9688 11.2721 17.9718 11.566C17.4631 11.7145 16.9854 11.9537 16.5618 12.272C16.4549 12.3554 16.4928 12.5809 16.6269 12.6048C17.4487 12.7012 18.2754 12.7497 19.1028 12.7501C19.5993 12.7501 20.1116 12.6095 20.2068 12.167C20.2553 11.9118 20.263 11.6506 20.2297 11.3931V11.3931ZM3.77003 11.3931C3.77266 11.3558 3.78895 11.3209 3.81577 11.2949C3.84259 11.269 3.87805 11.2538 3.91534 11.2524C4.46894 11.2327 5.03097 11.2721 6.028 11.566C6.53667 11.7145 7.01434 11.9537 7.438 12.272C7.54488 12.3554 7.50691 12.5809 7.37284 12.6048C6.55105 12.7012 5.72434 12.7497 4.89691 12.7501C4.4005 12.7501 3.88816 12.6095 3.793 12.167C3.74449 11.9118 3.73673 11.6506 3.77003 11.3931V11.3931Z" fill="currentColor"/>
<path d="M3.65625 9.89062C3.65625 9.89062 5.82891 9.32812 12 9.32812C18.1711 9.32812 20.3438 9.89062 20.3438 9.89062M20.25 9H21H20.25ZM3 9H3.75H3Z" stroke="currentColor" stroke-linecap="round" stroke-linejoin="round"/>
</svg>
