<svg width="24" height="24" viewBox="0 0 24 24" fill="none" xmlns="http://www.w3.org/2000/svg">
<g clip-path="url(#clip0)">
<path d="M16.9363 8.86005C14.6129 7.56055 10.8839 5.47387 5.09982 2.23524C4.70986 1.9777 4.26119 1.94395 3.87354 2.07516L13.7974 11.999L16.9363 8.86005Z" fill="#32BBFF"/>
<path d="M3.87356 2.0752C3.8009 2.0998 3.7302 2.12949 3.66258 2.16535C3.23449 2.39691 2.91992 2.8425 2.91992 3.40606V20.592C2.91992 21.1556 3.23445 21.6012 3.66258 21.8327C3.73008 21.8685 3.80074 21.8983 3.87332 21.9231L13.7974 11.999L3.87356 2.0752Z" fill="#32BBFF"/>
<path d="M13.7974 11.999L3.87329 21.923C4.26106 22.0552 4.70974 22.0241 5.09981 21.7628C10.7091 18.6218 14.3961 16.5598 16.7464 15.2493C16.8118 15.2125 16.8759 15.1766 16.9393 15.141L13.7974 11.999Z" fill="#32BBFF"/>
<path d="M2.91992 11.9993V20.5922C2.91992 21.1558 3.23445 21.6014 3.66258 21.8329C3.73008 21.8687 3.80074 21.8985 3.87332 21.9233L13.7974 11.9993H2.91992Z" fill="#2C9FD9"/>
<path d="M5.09986 2.23547C4.63678 1.92968 4.09068 1.93839 3.6626 2.16558L13.6468 12.1498L16.9363 8.86027C14.613 7.56078 10.8839 5.4741 5.09986 2.23547Z" fill="#29CC5E"/>
<path d="M13.6469 11.8486L3.6626 21.8328C4.09072 22.06 4.63678 22.0731 5.09986 21.7629C10.7092 18.6219 14.3962 16.56 16.7464 15.2494C16.8119 15.2127 16.876 15.1767 16.9393 15.1411L13.6469 11.8486Z" fill="#D93F21"/>
<path d="M21.0801 11.9992C21.0801 11.523 20.8398 11.0425 20.3636 10.776C20.3636 10.776 19.473 10.2791 16.7432 8.7522L13.4962 11.9992L16.7464 15.2494C19.4462 13.7335 20.3636 13.2224 20.3636 13.2224C20.8398 12.9559 21.0801 12.4754 21.0801 11.9992Z" fill="#FFD500"/>
<path d="M20.3636 13.2225C20.8398 12.956 21.0801 12.4754 21.0801 11.9993H13.4962L16.7464 15.2494C19.4463 13.7336 20.3636 13.2225 20.3636 13.2225Z" fill="#FFAA00"/>
</g>
<defs>
<clipPath id="clip0">
<rect width="20" height="20" fill="white" transform="translate(2 2)"/>
</clipPath>
</defs>
</svg>
