<svg width="24" height="24" viewBox="0 0 24 24" fill="none" xmlns="http://www.w3.org/2000/svg">
<path d="M15.7857 7.54683L7.04206 11.407C6.55128 11.632 6.71628 12.3759 7.25628 12.3759H11.4375C11.4873 12.3759 11.535 12.3957 11.5701 12.4308C11.6053 12.466 11.625 12.5137 11.625 12.5634V16.7437C11.625 17.2837 12.375 17.4468 12.5991 16.9575L16.4532 8.21433C16.4963 8.12091 16.5098 8.0165 16.4917 7.9152C16.4736 7.8139 16.4249 7.72057 16.3522 7.64781C16.2794 7.57504 16.1861 7.52635 16.0848 7.50829C15.9835 7.49024 15.8791 7.50369 15.7857 7.54683Z" fill="currentColor"/>
<path d="M21 12C21 7.03125 16.9688 3 12 3C7.03125 3 3 7.03125 3 12C3 16.9688 7.03125 21 12 21C16.9688 21 21 16.9688 21 12Z" stroke="currentColor" stroke-miterlimit="10"/>
</svg>
