<svg width="101" height="84" viewBox="0 0 101 84" fill="none" xmlns="http://www.w3.org/2000/svg">
<path d="M54.4237 80.7201H53.3432L55.7544 75.0396H56.8866L59.3494 80.7201H58.2173L57.5697 79.1709H55.6829L56.0444 78.2572H57.1885L56.2947 76.124L54.4237 80.7201ZM61.9108 75.0396V79.8064H64.1672V80.7201H60.8581V75.0396H61.9108ZM69.8667 75.0396V75.9453H67.0222V77.3753H69.7319V78.3168H67.0106V79.8064H69.9225V80.7201H65.9778V75.0396H69.8667ZM71.7094 80.7122V75.0396H74.2913C75.4512 75.0396 76.0311 75.5467 76.0311 76.561C76.0311 77.2469 75.5796 77.815 74.6765 78.2651L76.4762 80.7201H75.149L73.4214 78.2453V77.7646C74.4278 77.5925 74.9305 77.2018 74.9305 76.5928C74.9305 76.1744 74.6951 75.9651 74.2239 75.9651H72.7816V80.7122H71.7094ZM81.5041 75.0396V75.9532H79.8751V80.7201H78.8227V75.9532H77.1939V75.0396H81.5041Z" fill="#F16A49"/>
<path d="M21.1986 80.4819V79.5286C21.768 79.7404 22.4115 79.8463 23.1292 79.8463C24.0005 79.8463 24.4361 79.555 24.4361 78.9724C24.4361 78.5487 24.1686 78.3368 23.6337 78.3368H22.7439C21.5813 78.3368 21 77.8072 21 76.7479C21 75.5827 21.8276 75 23.4828 75C24.1183 75 24.7208 75.0927 25.2902 75.2781V76.2315C24.7208 76.0196 24.1183 75.9137 23.4828 75.9137C22.5294 75.9137 22.0527 76.1917 22.0527 76.7479C22.0527 77.1716 22.2831 77.3835 22.7439 77.3835H23.6337C24.8704 77.3835 25.4888 77.9132 25.4888 78.9724C25.4888 80.1642 24.7023 80.76 23.1292 80.76C22.4115 80.76 21.768 80.6673 21.1986 80.4819ZM27.1961 80.7203V75.0398H28.2886L30.2152 79.3498L32.102 75.0398H33.1547V80.7203H32.1815V76.7638L30.6402 80.7203H29.7424L28.1694 76.7638V80.7203H27.1961ZM35.7439 80.7203H34.6634L37.0747 75.0398H38.2068L40.6697 80.7203H39.5376L38.89 79.1711H37.0032L37.3646 78.2574H38.5087L37.6149 76.1242L35.7439 80.7203ZM42.1784 80.7123V75.0398H44.7605C45.9204 75.0398 46.5004 75.5469 46.5004 76.5612C46.5004 77.2471 46.0488 77.8152 45.1458 78.2654L46.9452 80.7203H45.6184L43.8905 78.2455V77.7649C44.8969 77.5927 45.4 77.2021 45.4 76.593C45.4 76.1745 45.1643 75.9653 44.693 75.9653H43.2509V80.7123H42.1784ZM51.9735 75.0398V75.9535H50.3448V80.7203H49.2921V75.9535H47.6635V75.0398H51.9735Z" fill="#F16A49"/>
<path d="M58 0H44C30.1929 0 19 11.1929 19 25V39C19 52.8071 30.1929 64 44 64H58C71.8071 64 83 52.8071 83 39V25C83 11.1929 71.8071 0 58 0Z" fill="#FC785B"/>
<path fill-rule="evenodd" clip-rule="evenodd" d="M51.0127 20.9928C46.8361 20.9928 43.9251 24.2647 43.9251 27.2009C43.9251 29.6853 43.2355 30.8337 42.6261 31.8471C42.1373 32.6609 41.7513 33.3038 41.7513 34.7008C41.9509 36.9546 43.4387 38.1388 51.0127 38.1388C58.5448 38.1388 60.0792 36.902 60.2776 34.6231C60.274 33.3038 59.888 32.6609 59.3993 31.8471C58.7898 30.8337 58.1003 29.6853 58.1003 27.2009C58.1003 24.2647 55.1893 20.9928 51.0127 20.9928ZM51.0126 39.9313C45.4248 39.9313 40.3746 39.5369 39.9624 34.7772C39.9588 32.8078 40.5599 31.8064 41.0904 30.9245C41.627 30.0306 42.1325 29.1881 42.1325 27.2008C42.1325 23.3373 45.7008 19.2002 51.0126 19.2002C56.3245 19.2002 59.8928 23.3373 59.8928 27.2008C59.8928 29.1881 60.3983 30.0306 60.9348 30.9245C61.4654 31.8064 62.0665 32.8078 62.0665 34.7007C61.6494 39.5369 56.6005 39.9313 51.0126 39.9313Z" fill="white"/>
<path fill-rule="evenodd" clip-rule="evenodd" d="M50.9544 44.893H50.952C49.6124 44.8918 48.3445 44.3015 47.3825 43.2295C47.0515 42.8627 47.0813 42.295 47.4494 41.9652C47.8175 41.633 48.3839 41.6629 48.7149 42.0321C49.3339 42.7217 50.1286 43.1005 50.9532 43.1005H50.9544C51.7825 43.1005 52.5808 42.7217 53.201 42.0309C53.5332 41.6641 54.0996 41.6342 54.4665 41.9652C54.8346 42.2962 54.8645 42.8639 54.5334 43.2307C53.5679 44.3027 52.2976 44.893 50.9544 44.893Z" fill="white"/>
</svg>
