<svg width="19" height="19" viewBox="0 0 19 19" fill="none" xmlns="http://www.w3.org/2000/svg">
<path fill-rule="evenodd" clip-rule="evenodd" d="M0.000335288 3.52797C0.000335288 5.47287 1.60301 7.05594 3.57451 7.05594C5.546 7.05594 7.14868 5.47287 7.14868 3.52797C7.14868 1.58196 5.546 0 3.57451 0C3.30292 0 3.03358 0.0297858 2.77205 0.0904607C2.32053 0.193056 2.04 0.638741 2.14506 1.08332C2.25012 1.5279 2.69941 1.80811 3.15204 1.7011C3.28839 1.67021 3.43145 1.65477 3.57451 1.65477C4.62172 1.65477 5.47224 2.49429 5.47224 3.52797C5.47224 4.56054 4.62172 5.40117 3.57451 5.40117C2.52729 5.40117 1.67678 4.56054 1.67678 3.52797C1.67678 3.42206 1.68572 3.31726 1.70248 3.21687C1.7796 2.76567 1.47002 2.33984 1.01402 2.26372C0.552443 2.19202 0.12551 2.49319 0.0495109 2.94439C0.0170997 3.13413 0.000335288 3.3294 0.000335288 3.52797ZM11.2893 4.35502H18.1616C18.6243 4.35502 18.9998 3.98435 18.9998 3.52764C18.9998 3.07092 18.6243 2.70025 18.1616 2.70025H11.2893C10.8266 2.70025 10.451 3.07092 10.451 3.52764C10.451 3.98435 10.8266 4.35502 11.2893 4.35502ZM7.71163 15.3492H0.83822C0.375523 15.3492 0 14.9785 0 14.5218C0 14.0651 0.375523 13.6944 0.83822 13.6944H7.71163C8.17433 13.6944 8.54985 14.0651 8.54985 14.5218C8.54985 14.9785 8.17433 15.3492 7.71163 15.3492ZM11.8517 14.522C11.8517 16.4669 13.4543 18.05 15.4258 18.05C17.3962 18.05 19 16.4669 19 14.522C19 14.3235 18.9832 14.1282 18.9508 13.9385C18.8748 13.4873 18.4412 13.1828 17.9863 13.2578C17.5303 13.3339 17.2207 13.7597 17.2979 14.2109C17.3146 14.3113 17.3236 14.4161 17.3236 14.522C17.3236 15.5546 16.4719 16.3952 15.4258 16.3952C14.3786 16.3952 13.5281 15.5546 13.5281 14.522C13.5281 13.3471 14.6904 12.4326 15.8528 12.6952C16.3032 12.7978 16.7525 12.5165 16.8564 12.0719C16.9592 11.6273 16.6753 11.1827 16.2238 11.0823C15.9623 11.0239 15.6941 10.9941 15.4258 10.9941C13.4543 10.9941 11.8517 12.576 11.8517 14.522Z" fill="currentColor"/>
</svg>
