<svg width="24" height="24" viewBox="0 0 24 24" fill="none" xmlns="http://www.w3.org/2000/svg">
<path d="M12.6667 1.5H10.4444L10.4075 1.5C9.3913 1.49999 8.57791 1.49998 7.93944 1.58582C7.27885 1.67463 6.73114 1.8635 6.29732 2.29732C5.8635 2.73114 5.67463 3.27885 5.58582 3.93944C5.49998 4.57791 5.49999 5.3913 5.5 6.40746L5.5 6.44444V17.5556L5.5 17.5925C5.49999 18.6087 5.49998 19.4221 5.58582 20.0606C5.67463 20.7211 5.8635 21.2689 6.29732 21.7027C6.73114 22.1365 7.27885 22.3254 7.93944 22.4142C8.57791 22.5 9.39129 22.5 10.4074 22.5H10.4444H12.6667H12.7037C13.7198 22.5 14.5332 22.5 15.1717 22.4142C15.8323 22.3254 16.38 22.1365 16.8138 21.7027C17.2476 21.2689 17.4365 20.7211 17.5253 20.0606C17.6111 19.4221 17.6111 18.6087 17.6111 17.5925V17.5556V6.44444V6.40747C17.6111 5.39131 17.6111 4.57792 17.5253 3.93944C17.4365 3.27885 17.2476 2.73114 16.8138 2.29732C16.38 1.8635 15.8323 1.67463 15.1717 1.58582C14.5332 1.49998 13.7198 1.49999 12.7037 1.5L12.6667 1.5Z" stroke="currentColor"/>
<path d="M6 16.4445H17.1111" stroke="currentColor"/>
</svg>
