<svg width="109" height="28" viewBox="0 0 109 28" fill="none" xmlns="http://www.w3.org/2000/svg">
<path d="M62.0303 27H60.1709L64.3203 17.2246H66.2686L70.5068 27H68.5586L67.4443 24.334H64.1973L64.8193 22.7617H66.7881L65.25 19.0908L62.0303 27ZM74.9146 17.2246V25.4277H78.7975V27H73.1031V17.2246H74.9146ZM88.6057 17.2246V18.7832H83.7111V21.2441H88.3732V22.8643H83.6906V25.4277H88.7014V27H81.9133V17.2246H88.6057ZM91.7762 26.9863V17.2246H96.2195C98.2156 17.2246 99.2137 18.0973 99.2137 19.8428C99.2137 21.0231 98.4367 22.0007 96.8826 22.7754L99.9793 27H97.6961L94.7225 22.7412V21.9141C96.4542 21.6178 97.3201 20.9456 97.3201 19.8975C97.3201 19.1774 96.9145 18.8174 96.1033 18.8174H93.6219V26.9863H91.7762ZM108.632 17.2246V18.7969H105.829V27H104.018V18.7969H101.215V17.2246H108.632Z" fill="#F16A49"/>
<path d="M0.854492 26.5898V24.9492C1.83431 25.3138 2.94173 25.4961 4.17676 25.4961C5.67611 25.4961 6.42578 24.9948 6.42578 23.9922C6.42578 23.263 5.96549 22.8984 5.04492 22.8984H3.51367C1.51302 22.8984 0.512695 21.987 0.512695 20.1641C0.512695 18.1589 1.93685 17.1562 4.78516 17.1562C5.87891 17.1562 6.91569 17.3158 7.89551 17.6348V19.2754C6.91569 18.9108 5.87891 18.7285 4.78516 18.7285C3.14453 18.7285 2.32422 19.207 2.32422 20.1641C2.32422 20.8932 2.7207 21.2578 3.51367 21.2578H5.04492C7.17318 21.2578 8.2373 22.1693 8.2373 23.9922C8.2373 26.043 6.88379 27.0684 4.17676 27.0684C2.94173 27.0684 1.83431 26.9088 0.854492 26.5898ZM11.1754 27V17.2246H13.0553L16.3707 24.6416L19.6178 17.2246H21.4293V27H19.7545V20.1914L17.1021 27H15.5572L12.8502 20.1914V27H11.1754ZM25.885 27H24.0256L28.175 17.2246H30.1232L34.3615 27H32.4133L31.299 24.334H28.052L28.674 22.7617H30.6428L29.1047 19.0908L25.885 27ZM36.9578 26.9863V17.2246H41.4012C43.3973 17.2246 44.3953 18.0973 44.3953 19.8428C44.3953 21.0231 43.6183 22.0007 42.0643 22.7754L45.1609 27H42.8777L39.9041 22.7412V21.9141C41.6359 21.6178 42.5018 20.9456 42.5018 19.8975C42.5018 19.1774 42.0962 18.8174 41.285 18.8174H38.8035V26.9863H36.9578ZM53.8139 17.2246V18.7969H51.0111V27H49.1996V18.7969H46.3969V17.2246H53.8139Z" fill="#F16A49"/>
<path fill-rule="evenodd" clip-rule="evenodd" d="M56.4174 15.0001H56.416C55.6339 14.9994 54.8936 14.6547 54.332 14.0289C54.1387 13.8147 54.1562 13.4833 54.3711 13.2908C54.586 13.0968 54.9167 13.1142 55.1099 13.3298C55.4713 13.7324 55.9353 13.9535 56.4167 13.9535H56.4174C56.9008 13.9535 57.3669 13.7324 57.729 13.3291C57.9229 13.1149 58.2536 13.0975 58.4678 13.2908C58.6827 13.484 58.7002 13.8154 58.5069 14.0296C57.9432 14.6554 57.2015 15.0001 56.4174 15.0001Z" fill="#F16A49"/>
<path fill-rule="evenodd" clip-rule="evenodd" d="M56.4514 1.04663C54.013 1.04663 52.3135 2.95686 52.3135 4.67105C52.3135 6.1215 51.9109 6.792 51.5551 7.3836C51.2698 7.85875 51.0444 8.2341 51.0444 9.04965C51.1609 10.3655 52.0295 11.0569 56.4514 11.0569C60.8488 11.0569 61.7447 10.3348 61.8605 9.0043C61.8584 8.2341 61.6331 7.85875 61.3477 7.3836C60.9919 6.792 60.5893 6.1215 60.5893 4.67105C60.5893 2.95686 58.8898 1.04663 56.4514 1.04663ZM56.4514 12.1032C53.1891 12.1032 50.2407 11.8731 50 9.0942C49.9979 7.9444 50.3488 7.35975 50.6586 6.8449C50.9719 6.32305 51.267 5.83115 51.267 4.67094C51.267 2.41535 53.3502 0 56.4514 0C59.5526 0 61.6358 2.41535 61.6358 4.67094C61.6358 5.83115 61.9309 6.32305 62.2442 6.8449C62.5539 7.35975 62.9049 7.9444 62.9049 9.04955C62.6614 11.873 59.7137 12.1032 56.4514 12.1032Z" fill="#F16A49"/>
</svg>
