<svg width="125" height="18" viewBox="0 0 125 18" fill="none" xmlns="http://www.w3.org/2000/svg">
<g clip-path="url(#clip0)">
<path d="M78.5176 12.8438H76.6582L80.8076 3.06836H82.7559L86.9941 12.8438H85.0459L83.9316 10.1778H80.6846L81.3066 8.60546H83.2754L81.7373 4.93456L78.5176 12.8438ZM91.4019 3.06836V11.2715H95.2848V12.8438H89.5904V3.06836H91.4019ZM105.093 3.06836V4.62696H100.198V7.08786H104.861V8.70806H100.178V11.2715H105.189V12.8438H98.4006V3.06836H105.093ZM108.264 12.8301V3.06836H112.707C114.703 3.06836 115.701 3.94106 115.701 5.68656C115.701 6.86686 114.924 7.84446 113.37 8.61916L116.467 12.8438H114.183L111.21 8.58496V7.75786C112.942 7.46156 113.807 6.78936 113.807 5.74126C113.807 5.02116 113.402 4.66116 112.591 4.66116H110.109V12.8301H108.264ZM125.119 3.06836V4.64066H122.316V12.8438H120.505V4.64066H117.702V3.06836H125.119Z" fill="#F16A49"/>
<path d="M21.3418 12.4336V10.793C22.3216 11.1576 23.429 11.3399 24.6641 11.3399C26.1634 11.3399 26.9131 10.8386 26.9131 9.836C26.9131 9.1068 26.4528 8.7422 25.5322 8.7422H24.001C22.0003 8.7422 21 7.8308 21 6.0079C21 4.0027 22.4242 3 25.2725 3C26.3662 3 27.403 3.1596 28.3828 3.4786V5.1192C27.403 4.7546 26.3662 4.5723 25.2725 4.5723C23.6318 4.5723 22.8115 5.0508 22.8115 6.0079C22.8115 6.737 23.208 7.1016 24.001 7.1016H25.5322C27.6605 7.1016 28.7246 8.0131 28.7246 9.836C28.7246 11.8868 27.3711 12.9122 24.6641 12.9122C23.429 12.9122 22.3216 12.7526 21.3418 12.4336ZM31.6627 12.8438V3.0684H33.5426L36.858 10.4854L40.1051 3.0684H41.9166V12.8438H40.2418V6.0352L37.5894 12.8438H36.0445L33.3375 6.0352V12.8438H31.6627ZM46.3723 12.8438H44.5129L48.6623 3.0684H50.6105L54.8488 12.8438H52.9006L51.7863 10.1778H48.5393L49.1613 8.6055H51.1301L49.592 4.9346L46.3723 12.8438ZM57.4451 12.8301V3.0684H61.8885C63.8846 3.0684 64.8826 3.9411 64.8826 5.6866C64.8826 6.8669 64.1056 7.8445 62.5516 8.6192L65.6482 12.8438H63.365L60.3914 8.585V7.7579C62.1232 7.4616 62.9891 6.7894 62.9891 5.7413C62.9891 5.0212 62.5835 4.6612 61.7723 4.6612H59.2908V12.8301H57.4451ZM74.3012 3.0684V4.6407H71.4984V12.8438H69.6869V4.6407H66.8842V3.0684H74.3012Z" fill="#F16A49"/>
<path fill-rule="evenodd" clip-rule="evenodd" d="M7.70081 18.0001H7.69913C6.76062 17.9992 5.87226 17.5856 5.19834 16.8346C4.96638 16.5776 4.98738 16.1799 5.24526 15.9489C5.50314 15.7161 5.89998 15.737 6.13182 15.9957C6.5655 16.4788 7.12229 16.7441 7.69997 16.7441H7.70081C8.28089 16.7441 8.84021 16.4788 9.27473 15.9949C9.5074 15.7378 9.90424 15.7169 10.1613 15.9489C10.4192 16.1807 10.4402 16.5784 10.2082 16.8355C9.53177 17.5864 8.64173 18.0001 7.70081 18.0001Z" fill="#F16A49"/>
<path fill-rule="evenodd" clip-rule="evenodd" d="M7.74166 1.25595C4.81559 1.25595 2.7762 3.54822 2.7762 5.60524C2.7762 7.34577 2.29308 8.15037 1.86612 8.86028C1.52376 9.43046 1.25329 9.88088 1.25329 10.8595C1.39308 12.4385 2.4354 13.2682 7.74166 13.2682C13.0185 13.2682 14.0936 12.4017 14.2326 10.8051C14.23 9.88088 13.9597 9.43046 13.6172 8.86028C13.1902 8.15037 12.7071 7.34577 12.7071 5.60524C12.7071 3.54822 10.6677 1.25595 7.74166 1.25595ZM7.74166 14.5238C3.82692 14.5238 0.28885 14.2477 1.12561e-05 10.913C-0.00250873 9.53324 0.418569 8.83166 0.790328 8.21385C1.16629 7.58763 1.5204 6.99735 1.5204 5.6051C1.5204 2.89841 4.02024 0 7.74166 0C11.4631 0 13.9629 2.89841 13.9629 5.6051C13.9629 6.99735 14.317 7.58763 14.693 8.21385C15.0646 8.83166 15.4858 9.53324 15.4858 10.8594C15.1936 14.2475 11.6564 14.5238 7.74166 14.5238Z" fill="#F16A49"/>
</g>
<defs>
<clipPath id="clip0">
<rect width="125" height="18" fill="white"/>
</clipPath>
</defs>
</svg>
