<svg width="32" height="32" viewBox="0 0 32 32" fill="none" xmlns="http://www.w3.org/2000/svg">
<path fill-rule="evenodd" clip-rule="evenodd" d="M16.442 8.07447C16.2955 8.02556 16.1407 7.99996 15.9832 8C15.1749 8.00888 14.5192 8.6571 14.5011 9.46525V14.0631H9.4485C9.06143 14.0631 8.69044 14.218 8.41832 14.4932C8.14621 14.7685 7.9956 15.1413 8.0001 15.5283C8.00786 16.2269 8.49861 16.8102 9.15579 16.9579C9.27076 16.9895 9.3914 17.0076 9.5159 17.0104H22.4673H22.5684C23.3644 16.9921 24.0001 16.3414 23.9999 15.5452C24.0044 15.1581 23.8538 14.7854 23.5817 14.5101C23.4142 14.3407 23.2093 14.2168 22.9862 14.1466C22.8266 14.0899 22.6568 14.0611 22.4841 14.0631H17.499V9.48208C17.499 8.81454 17.0526 8.25127 16.442 8.07447ZM14.5347 20.6819V22.3661C14.5156 23.172 15.1441 23.8455 15.9495 23.8819C16.3381 23.8955 16.7163 23.7541 17.0006 23.4887C17.2849 23.2234 17.4521 22.8559 17.4652 22.4672V20.6146C17.4835 20.2247 17.3436 19.8439 17.0773 19.5586C16.811 19.2732 16.4407 19.1074 16.0505 19.0988C15.6618 19.0852 15.2837 19.2266 14.9994 19.492C14.7151 19.7573 14.5479 20.1248 14.5347 20.5135V20.6819Z" fill="currentColor"/>
</svg>
